<svg height="1024" viewBox="0 0 1024 1024" width="1024" xmlns="http://www.w3.org/2000/svg" xmlns:xlink="http://www.w3.org/1999/xlink"><defs><path id="a" d="m0 0h1024v1024h-1024z"/></defs><g fill="none" xlink:href="#a"><use fill="#588157" fill-rule="evenodd" xlink:href="#a"/><path d="m167.102681 572.644365c-14.398771 0-27.301566-3.295508-38.708384-9.886525-11.313321-6.637762-20.219054-16.033466-26.717201-28.187114-6.4513973-12.200392-9.677096-26.644535-9.677096-43.332428 0-16.828128 3.2256987-31.342388 9.677096-43.542781 6.498147-12.200392 15.40388-21.596097 26.717201-28.187113 11.360069-6.591017 24.262864-9.886525 38.708384-9.886525 9.256353 0 17.834842 1.376634 25.735466 4.129903 7.900625 2.753268 14.889639 6.679831 20.967042 11.779689 6.124153 5.095183 11.149698 11.195379 15.076636 18.300589 3.884863 7.151954 6.456072 15.145315 7.713627 23.980082h-32.958226c-.916286-4.660457-2.435637-8.797372-4.558053-12.410744-2.117741-3.674142-4.7357-6.735926-7.853875-9.185353-3.108826-2.542918-6.685144-4.450105-10.728954-5.721564-3.954988-1.341576-8.302669-2.012363-13.043043-2.012363-8.975858 0-16.642736 2.154935-23.000635 6.464805-6.2644 4.309871-11.102948 10.410067-14.515644 18.300589-3.389321 7.853126-5.083982 17.178714-5.083982 27.976762 0 10.751304 1.659599 20.030146 4.978796 27.836528 3.389321 7.853126 8.274619 13.92995 14.655892 18.230471 6.357899 4.309871 14.024777 6.464806 23.000635 6.464806 4.721675 0 9.069356-.635729 13.043042-1.907188 3.954988-1.271458 7.484557-3.178646 10.588707-5.721563 3.108826-2.542917 5.726784-5.604701 7.853875-9.185353 2.117742-3.604024 3.707216-7.694194 4.768425-12.27051h32.817978c-1.27158 8.741278-3.842789 16.687893-7.713627 23.839848-3.884864 7.151954-8.910409 13.25215-15.076636 18.300588-6.124152 5.095184-13.159916 9.021747-21.107289 11.77969-7.853875 2.683151-16.40899 4.024727-25.665342 4.024727zm141.650249 0c-11.219822 0-21.107289-2.43073-29.662403-7.292189s-15.240258-11.6862-20.055432-20.474222c-4.721675-8.741277-7.082512-18.955016-7.082512-30.641215 0-11.732945 2.360837-21.970056 7.082512-30.711333 4.815174-8.741278 11.500318-15.566018 20.055432-20.474222 8.555114-4.954949 18.442581-7.432423 29.662403-7.432423 11.36007 0 21.294287 2.477474 29.802652 7.432423 8.555114 4.861459 15.193508 11.6862 19.915183 20.474222 4.815173 8.741277 7.22276 18.978388 7.22276 30.711333 0 11.639455-2.407587 21.853193-7.22276 30.641215-4.721675 8.741278-11.360069 15.566018-19.915183 20.474222-8.461616 4.861459-18.395833 7.292189-29.802652 7.292189zm0-25.312309c5.095669 0 9.536849-1.306517 13.323538-3.919551 3.81474-2.683152 6.783318-6.492853 8.905734-11.429103 2.117741-4.954949 3.176612-10.844794 3.176612-17.669534 0-7.01172-1.058871-12.971682-3.176612-17.879886-2.117741-4.954949-5.086319-8.741277-8.905734-11.358986-3.814739-2.683152-8.255918-4.024727-13.323538-4.024727-5.00217 0-9.419975 1.341575-13.253414 4.024727-3.81474 2.613034-6.783317 6.399363-8.905734 11.358986-2.117741 4.954949-3.176612 10.914911-3.176612 17.879886 0 6.91823 1.058871 12.854819 3.176612 17.809768 2.117742 4.861459 5.08632 8.647788 8.905734 11.358986 3.814739 2.613034 8.232544 3.919551 13.253414 3.919551zm77.136274 22.78809v-157.763697h47.543995l26.086085 73.623059c1.061208 3.31888 2.332788 7.40905 3.814739 12.270509 1.481952 4.814715 3.001303 9.863153 4.558053 15.145315 1.552075 5.235418 2.963903 10.260484 4.235483 15.075198 1.341703 4.814714 2.435636 8.811394 3.281798 11.990041h-8.134371c.846161-3.178647 1.905032-7.175327 3.176612-11.990041 1.341703-4.814714 2.79093-9.83978 4.347681-15.075198 1.552075-5.282162 3.036364-10.3306 4.452866-15.145315 1.481952-4.861459 2.71847-8.951629 3.709554-12.270509l25.735466-73.623059h47.543994v157.763697h-31.976491v-75.025403c0-3.533906.070591-7.740938.211774-12.621095.141182-4.861459.282365-10.050132.423548-15.566018.141183-5.562631.282365-11.172007.423548-16.828128.141183-5.702865.24707-11.10189.317661-16.197073h3.919926c-1.626874 5.562631-3.321535 11.288869-5.083982 17.178714-1.696998 5.8431-3.356597 11.522593-4.978796 17.038479-1.626874 5.515886-3.181287 10.611069-4.663238 15.285549-1.411828 4.59034-2.648346 8.516903-3.709554 11.77969l-26.7172 75.025402h-26.506829l-26.997696-75.025402c-1.061208-3.248764-2.332788-7.175327-3.814739-11.77969-1.481952-4.660456-3.071426-9.755639-4.768424-15.285549-1.626875-5.515886-3.356597-11.195379-5.189168-17.038479-1.767122-5.8431-3.496844-11.569338-5.189168-17.178714h4.663239c.070591 5.095183.176478 10.494208.317661 16.197073.141183 5.656121.282366 11.265497.423548 16.828128.141183 5.515886.24707 10.704559.317662 15.566018.141182 4.861459.211774 9.068491.211774 12.621095v75.025403zm230.006345 1.907187c-7.433132 0-14.048152-1.236399-19.84506-3.709199s-10.35496-6.189012-13.674157-11.148635c-3.319198-5.001693-4.978796-11.218752-4.978796-18.651175 0-6.263803 1.166394-11.49922 3.499182-15.706252 2.332787-4.239753 5.511737-7.628751 9.536848-10.166994 4.095235-2.613034 8.746786-4.590339 13.954653-5.931915 5.282666-1.341575 10.822453-2.260111 16.619361-2.755606 6.872141-.705846 12.318429-1.376634 16.338865-2.012363 4.025111-.63573 6.923565-1.554265 8.695362-2.755606 1.767122-1.201341 2.650683-3.003353 2.650683-5.406036v-.743242c0-2.753269-.740976-5.160626-2.222927-7.222072-1.481952-2.117539-3.60203-3.77698-6.360237-4.978321-2.683407-1.201341-5.93248-1.802012-9.74722-1.802012-3.814739 0-7.20406.600671-10.167963 1.802012-2.898454 1.201341-5.193842 2.89584-6.886166 5.083497-1.696998 2.187657-2.685744 4.735248-2.96624 7.642775h-29.381908c.495542-7.712892 2.755869-14.397398 6.78098-20.053519 4.095235-5.656121 9.822019-10.003387 17.180352-13.041799 7.339633-3.108529 16.128493-4.662794 26.366581-4.662794 7.620129 0 14.44552.883477 20.476174 2.65043 5.983905 1.696837 11.032825 4.197683 15.14676 7.502541 4.170033 3.31888 7.302233 7.338933 9.3966 12.060158 2.117742 4.721224 3.176612 10.096876 3.176612 16.126955v75.726575h-30.50389v-15.77637h-.42425c-1.977493 3.674141-4.408454 6.806043-7.292884 9.395704-2.898454 2.613035-6.428022 4.660457-10.588706 6.142267-4.170034 1.411693-9.125455 2.117539-14.866264 2.117539zm8.695362-21.736331c5.00217 0 9.303102-.918535 12.902795-2.755606 3.674491-1.83707 6.502821-4.337917 8.48499-7.50254 1.977493-3.178646 2.96624-6.777996 2.96624-10.798049v-11.218751c-.916285.495494-2.117741.990989-3.604368 1.486484-1.481951.423976-3.211674.847016-5.189167 1.269122-1.977494.35339-4.132635.741372-6.465422 1.163945-2.332788.423975-4.740375.811957-7.222761 1.163945-3.604367.565613-6.853441 1.449089-9.74722 2.650431-2.898454 1.131224-5.193842 2.685488-6.886165 4.662793-1.696998 1.907188-2.545497 4.337918-2.545497 7.292189 0 2.613034.705913 4.873145 2.117741 6.780333s3.424383 3.356277 6.037667 4.347266c2.613283.99099 5.651985 1.486485 9.116105 1.486485zm79.23999 64.087119v-156.361352h30.85451v15.145315h.317661c2.332788-3.884493 5.114369-7.109884 8.344742-9.676174 3.319198-2.613034 7.059138-4.55528 11.219822-5.826739 4.240158-1.341575 8.751461-2.012363 13.53391-2.012363 9.536848 0 17.904966 2.477474 25.104351 7.432423 7.292884 4.861459 12.949544 11.686199 16.96998 20.474222 4.095235 8.694532 6.142853 18.791409 6.142853 30.290629 0 11.639455-2.012556 21.853194-6.037667 30.641216-4.025111 8.741277-9.635022 15.566018-16.829732 20.474222-7.199386 4.861459-15.707751 7.292189-25.525095 7.292189-4.861922 0-9.373226-.705847-13.53391-2.11754-4.095234-1.411693-7.765051-3.531569-11.00945-6.35963-3.178949-2.823386-5.820282-6.352618-7.923999-10.587697h-.317661v61.001963zm56.028985-67.382627c5.095669 0 9.466724-1.271459 13.113166-3.814376 3.744616-2.613034 6.64307-6.352618 8.695362-11.218752 2.117742-4.954948 3.176612-10.91491 3.176612-17.879885s-1.05887-12.901565-3.176612-17.809769c-2.047617-4.861459-4.946071-8.601043-8.695362-11.218751-3.674491-2.613035-8.045547-3.919552-13.113166-3.919552-5.235917 0-9.864093 1.376635-13.88453 4.129903-3.954987 2.683152-7.017063 6.492853-9.186229 11.429104-2.117741 4.861459-3.176612 10.657814-3.176612 17.389065 0 6.637761 1.058871 12.434116 3.176612 17.389065 2.187866 4.954949 5.249942 8.811395 9.186229 11.569338 4.025111 2.683151 8.653288 4.024727 13.88453 4.024727zm122.716799 25.873246c-9.677096 0-18.302334-1.484147-25.875713-4.452442-7.57338-3.038412-13.604034-7.385678-18.091963-13.041799-4.520653-5.656121-7.138611-12.480861-7.853875-20.474222h30.714262c.565666 4.861459 2.613283 8.67116 6.142852 11.429103s8.344743 4.134578 14.445521 4.129903c5.796908 0 10.308211-1.093828 13.53391-3.281485 3.319197-2.187656 4.978796-5.015717 4.978796-8.484181 0-2.968294-1.27158-5.375651-3.81474-7.222071-2.473036-1.837071-6.002604-3.178646-10.588707-4.024727l-19.634688-3.814376c-10.892576-2.117539-19.167195-5.92724-24.823855-11.429103-5.65666-5.515886-8.48499-12.574351-8.48499-21.175394 0-7.058465 1.90737-13.228778 5.722109-18.51094 3.884863-5.282163 9.354526-9.372333 16.408989-12.27051 7.152636-2.898178 15.590877-4.347266 25.314723-4.347266 9.677096 0 18.115337 1.554264 25.314722 4.662793 7.199386 3.038412 12.809297 7.385679 16.829733 13.041799 4.095235 5.656121 6.250376 12.363999 6.465422 20.123636h-28.961164c-.070592-4.520222-1.837714-8.259806-5.301366-11.218752-3.459445-2.968294-7.970749-4.452442-13.53391-4.452442-5.376165 0-9.583598 1.166283-12.6223 3.498848-3.038701 2.262449-4.558052 5.043764-4.558052 8.343947 0 2.898178 1.201456 5.25879 3.604368 7.081837 2.402911 1.823047 5.722109 3.199682 9.957591 4.129903l21.177414 4.129903c11.31332 2.187657 19.611313 5.787006 24.893979 10.798049 5.376165 4.954948 8.064247 11.569337 8.064247 19.843167 0 7.432423-2.120079 13.92995-6.360236 19.492581-4.170034 5.515886-9.990317 9.816408-17.460848 12.901564-7.433132 3.038412-16.01162 4.557618-25.735466 4.557618z" fill="#fff"/></g></svg>