<svg height="28" viewBox="0 0 28 28" width="28" xmlns="http://www.w3.org/2000/svg"><g fill="none" opacity=".898664"><circle cx="14" cy="14" fill="#be75a3" fill-rule="evenodd" r="14"/><path d="m11.3735667 18.307716c-.742245 0-1.3428334.6057683-1.3428334 1.3461 0 .74039.6005417 1.3461 1.3428334 1.3461.742245 0 1.3494833-.6057683 1.3494833-1.3461 0-.74039-.607285-1.3461-1.3494833-1.3461zm-4.5735667-10.81966667c0 .32523167.26993167.588875.58562.588875h.81438l2.1 6.46158337c-.74345833 0-1.3461.782075-1.3461 1.7477833v-.2647633c0 .965265.785155 1.7477833 1.7484833 1.7477833h8.1061167c.3267133 0 .5915583-.2497717.5915583-.588875v.1008303c0-.3252316-.2702933-.588875-.5860866-.588875h-8.197c-.3236917 0-.5860867-.2497716-.5860867-.588875v.1008304c0-.3252317.2672133-.588875.5775817-.588875h7.4536c1.1548366 0 1.0512483-.295715 1.225-.6461467l1.42905-4.8332667c.056-.098.084-.21699997.084-.33599997 0-.385-.315-.7-.5384634-.64615833h-10.5145833l-.847-2.1539h-1.52611667c-.316925 0-.57395333.24977167-.57395333.588875v-.10083033zm11.0350333 10.81966667c-.742245 0-1.3428333.6057683-1.3428333 1.3461 0 .74039.6005417 1.3461 1.3428333 1.3461.7422917 0 1.3494834-.6057683 1.3494834-1.3461 0-.74039-.607285-1.3461-1.3494834-1.3461z" fill="#fff"/></g></svg>