<?xml version="1.0" encoding="UTF-8"?>
<svg width="28px" height="28px" viewBox="0 0 28 28" version="1.1" xmlns="http://www.w3.org/2000/svg" xmlns:xlink="http://www.w3.org/1999/xlink">
    <title>post_light</title>
    <g id="post_light" stroke="none" fill="none" fill-rule="evenodd">
        <path d="M14,28 C21.7319865,28 28,21.7319865 28,14 C28,6.2680135 21.7319865,0 14,0 C6.2680135,0 0,6.2680135 0,14 C0,21.7319865 6.2680135,28 14,28 Z M20.5333333,7 C21.4316667,7 22.1666667,7.735 22.1666667,8.63333333 L22.1666667,18.4333333 C22.1666667,19.3316667 21.4316667,20.0666667 20.5333333,20.0666667 L7.46666667,20.0666667 C6.56833333,20.0666667 5.83333333,19.3316667 5.83333333,18.4333333 L5.8415,8.63333333 C5.8415,7.735 6.56833333,7 7.46666667,7 L20.5333333,7 Z M20.5333333,9.88283333 C20.5333333,9.33566667 19.9371667,9.009 19.4716667,9.29483333 L14,12.7166667 L8.52833333,9.29483333 C8.06283333,9.009 7.46666667,9.33566667 7.46666667,9.88283333 C7.46666667,10.1196667 7.58916667,10.3401667 7.79333333,10.4708333 L13.5671667,14.0805 C13.8285,14.2438333 14.1715,14.2438333 14.4328333,14.0805 L20.2066667,10.4708333 C20.4108333,10.3401667 20.5333333,10.1196667 20.5333333,9.88283333 Z" id="Shape" fill="#747E86"></path>
    </g>
</svg>