<svg height="28" viewBox="0 0 28 28" width="28" xmlns="http://www.w3.org/2000/svg"><g fill="none" opacity=".898664"><circle cx="14" cy="14" fill="#747e86" fill-rule="evenodd" r="14"/><path d="m20.5333333 7.46666667h-13.06666663c-.89833334 0-1.62516667.735-1.62516667 1.63333333l-.00816667 9.8c0 .8983333.735 1.6333333 1.63333334 1.6333333h13.06666663c.8983334 0 1.6333334-.735 1.6333334-1.6333333v-9.8c0-.89833333-.735-1.63333333-1.6333334-1.63333333zm-.3266666 3.47083333-5.7738334 3.6096667c-.2613333.1633333-.6043333.1633333-.8656666 0l-5.77383337-3.6096667c-.20416666-.1306667-.32666666-.3511667-.32666666-.588 0-.54716667.59616666-.87383333 1.06166666-.588l5.47166667 3.4218333 5.4716667-3.4218333c.4655-.28583333 1.0616666.04083333 1.0616666.588 0 .2368333-.1225.4573333-.3266666.588z" fill="#fff"/></g></svg>