<svg height="28" viewBox="0 0 28 28" width="28" xmlns="http://www.w3.org/2000/svg"><g fill="none" opacity=".898664"><circle cx="14" cy="14" fill="#664e42" fill-rule="evenodd" r="14"/><path d="m10.2879 14.1061667c1.2324667 0 2.2272833-.9948517 2.2272833-2.2272834 0-1.2324666-.9948516-2.2272833-2.2272833-2.2272833-1.23246667 0-2.22728333.9948517-2.22728333 2.2272833 0 1.2324667.99485166 2.2272834 2.22728333 2.2272834zm8.9091333-4.4545667h-4.4545666c-.8166667 0-1.4848167.668185-1.4848167 1.4848167v3.7121h-5.93938333v-5.93938337c0-.40833333-.33408667-.74242-.74242-.74242-.40833334 0-.74242.33408667-.74242.74242v9.65148337c0 .4083333.33408666.74242.74242.74242.40833333 0 .74242-.3340867.74242-.74242v-1.4848167h13.36416663v1.4848167c0 .4083333.3340867.74242.74242.74242.4083334 0 .74242-.3340867.74242-.74242v-5.9393834c0-1.6408-1.32895-2.96974997-2.96975-2.96974997z" fill="#fff"/></g></svg>