<svg height="28" viewBox="0 0 28 28" width="28" xmlns="http://www.w3.org/2000/svg"><g fill="none" opacity=".898664"><circle cx="14" cy="14" fill="#be75a3" fill-rule="evenodd" r="14"/><path d="m13.9999526 5c-2.1466666 0-3.8896666 1.743-3.8896666 3.88966667h-1.55400003c-.85555167 0-1.54945.69848333-1.54945 1.55400003l-.00683597 9.3333333c0 .8555517.70075833 1.5563333 1.55633333 1.5563333h10.88733337c.8555516 0 1.5563333-.7007583 1.5563333-1.5563333v-9.3333333c0-.8555517-.7007583-1.55400003-1.5563333-1.55400003h-1.554c0-2.14666667-1.743-3.88966667-3.8896667-3.88966667zm0 1.55633333c1.29115 0 2.3333334 1.04221834 2.3333334 2.33333334h-4.6666667c0-1.29115 1.0422183-2.33333334 2.3333333-2.33333334zm-.56511 3.95348337c.0600413-.0069579.1202605.0114731.1661221.0508442.0458617.039371.0731988.0961049.0754129.1565074l.0387369 1.111985c.0033849.1098037-.0759196.2047736-.1845667.221025-.62468.094451-1.2255833.381255-1.7067167.8658884-1.1215633 1.1296833-1.1764666 2.9078-.19824 4.1266166l1.0595667-1.0664033c.0619856-.061316.1546788-.0795185.2352488-.0461966.08057.033322.133328.1116797.1338962.1988666l.0068355 3.1194333c.000008.0594177-.0243784.116233-.0674555.1571575-.0430772.0409245-.1010669.0623689-.1604062.0593175l-2.94629997-.1595066c-.08554145-.0040646-.16066839-.0581181-.19170792-.1379329-.03103953-.0798149-.01217055-.1704228.04814959-.2312121l.7975217-.806645c-1.57033337-1.8226834-1.51445003-4.5740334.2005266-6.3004667.7542384-.75985 1.708-1.1998 2.6933667-1.3193833zm1.73635.2460966 2.9463.1617817c.0851317.0049023.1594772.0592691.1899553.138909.0304782.0796399.0114242.1697506-.0486836.230236l-.7975217.8043583c1.5717334 1.8216334 1.5188834 4.57485-.195965 6.3026834-.0007595-.000004-.001519-.000004-.0022785 0-.754985.759465-1.7105666 1.1974666-2.6955833 1.31705-.0600413.0069578-.1202605-.0114732-.1661221-.0508442-.0458616-.0393711-.0731988-.096105-.0754129-.1565075l-.0364583-1.1096983c-.0033849-.1098037.0759195-.2047736.1845666-.221025.624225-.0943822 1.2237167-.3834484 1.7043834-.8681634.0007595.000004.001519.000004.0022785 0 1.1215633-1.128715 1.1767-2.90465.19824-4.1244l-1.0595667 1.0664034c-.0619856.061316-.1546788.0795184-.2352488.0461965s-.133328-.1116797-.1338962-.1988665l-.0068355-3.1217667c-.000008-.0594176.0243784-.1162329.0674555-.1571574.0430772-.0409245.1010669-.0623689.1604062-.0593176z" fill="#fff"/></g></svg>