<svg height="28" viewBox="0 0 28 28" width="28" xmlns="http://www.w3.org/2000/svg"><g fill="none" opacity=".898664"><circle cx="14" cy="14" fill="#9c6136" fill-rule="evenodd" r="14"/><path d="m10.7398398 14.5988166c.5368141 0 1.0342998.1680621 1.4425266.4544446-.4098863.4382013-.6588082 1.0243313-.6588082 1.67081l.0057448.1651714.0198026.1813349c.0521553.3587035.1789128.6926717.3676742.9850304l.0378701.0548615-.0403932.0235806c-.7725089.4606743-1.2766068 1.3040164-1.2766068 2.2547064l-.0006499.6842436h-4.685l.00032411-3.9650829c0-1.3857515 1.10866142-2.5091005 2.51211163-2.5091005zm3.9965404 4.1659189c.8980027 0 1.6259699.7266137 1.6259699 1.6240209l-.0003501.6842436h-4.725l.0006499-.6842436c0-.8969307.7175836-1.6240209 1.6259699-1.6240209zm4.7552267-6.3579012c1.3876447 0 2.5125409 1.1228048 2.5125409 2.5095293l-.0001478 6.1566364h-4.642l.0003501-.6842436-.0056469-.169323-.0181866-.1760574c-.1111202-.8134553-.58583-1.5086973-1.2600453-1.9104975l-.0368214-.0204091.0390275-.0549577c.2556506-.3916257.3957644-.8504536.3957644-1.3334405 0-1.0986687-.7189708-2.0230653-1.7154784-2.3401921.2397128-1.1301419 1.2361598-1.9770448 2.4548506-1.9770448zm-5.4916069 2.8596351c.8194057 0 1.4764418.6486555 1.4764418 1.4576018 0 .8089896-.6569928 1.4576019-1.4764418 1.4576019-.8194057 0-1.4764418-.6486556-1.4764418-1.4576019 0-.8089896.6570361-1.4576018 1.4764418-1.4576018zm-4.39786225-6.07244831c1.26597575 0 2.28109175 1.00216811 2.28109175 2.25198421 0 1.249883-1.015049 2.2519842-2.28109175 2.2519842-1.26597578 0-2.2810917-1.0021681-2.2810917-2.2519842 0-1.249883 1.01511592-2.25198421 2.2810917-2.25198421zm8.75157275-2.19290588c1.2661921 0 2.2814815 1.00233935 2.2814815 2.25236901 0 1.25009658-1.0152225 2.25236898-2.2814815 2.25236898-1.2661921 0-2.2814815-1.0023393-2.2814815-2.25236898 0-1.25009659 1.0152894-2.25236901 2.2814815-2.25236901z" fill="#fff"/></g></svg>