<?xml version="1.0" encoding="UTF-8"?>
<svg width="28px" height="28px" viewBox="0 0 28 28" version="1.1" xmlns="http://www.w3.org/2000/svg" xmlns:xlink="http://www.w3.org/1999/xlink">
    <title>children_light</title>
    <g id="children_light" stroke="none" fill="none" fill-rule="evenodd">
        <path d="M14,0 C21.7319865,0 28,6.2680135 28,14 C28,21.7319865 21.7319865,28 14,28 C6.2680135,28 0,21.7319865 0,14 C0,6.2680135 6.2680135,0 14,0 Z M19.4916069,12.4068343 L17.215814,12.4068343 C15.9971232,12.4068343 15.0006762,13.2537372 14.7609634,14.3838791 C15.757471,14.7010059 16.4764418,15.6254025 16.4764418,16.7240712 C16.4764418,17.2070581 16.336328,17.665886 16.0806774,18.0575117 L16.0416499,18.1124694 L16.0784713,18.1328785 C16.7526866,18.5346787 17.2273964,19.2299207 17.3385166,20.043376 L17.3567032,20.2194334 L17.3623501,20.3887564 L17.362,21.073 L22.004,21.073 L22.0041478,14.9163636 C22.0041478,13.5296391 20.8792516,12.4068343 19.4916069,12.4068343 Z M10.7398398,14.5988166 L8.46443574,14.5988166 C7.06098553,14.5988166 5.95232411,15.7221656 5.95232411,17.1079171 L5.952,21.073 L10.637,21.073 L10.6376499,20.3887564 C10.6376499,19.4380664 11.1417478,18.5947243 11.9142567,18.13405 L11.9546499,18.1104694 L11.9167798,18.0556079 C11.7280184,17.7632492 11.6012609,17.429281 11.5491056,17.0705775 L11.529303,16.8892426 L11.5235582,16.7240712 C11.5235582,16.0775925 11.7724801,15.4914625 12.1823664,15.0532612 C11.7741396,14.7668787 11.2766539,14.5988166 10.7398398,14.5988166 Z M14.7363802,18.7647355 L13.2636198,18.7647355 C12.3552335,18.7647355 11.6376499,19.4918257 11.6376499,20.3887564 L11.637,21.073 L16.362,21.073 L16.3623501,20.3887564 C16.3623501,19.4913492 15.6343829,18.7647355 14.7363802,18.7647355 Z M14,15.2664694 C13.1805943,15.2664694 12.5235582,15.9150816 12.5235582,16.7240712 C12.5235582,17.5330175 13.1805943,18.1816731 14,18.1816731 C14.819449,18.1816731 15.4764418,17.5330608 15.4764418,16.7240712 C15.4764418,15.9151249 14.8194057,15.2664694 14,15.2664694 Z M9.60213775,9.19402109 C8.33616197,9.19402109 7.32104605,10.1961223 7.32104605,11.4460053 C7.32104605,12.6958214 8.33616197,13.6979895 9.60213775,13.6979895 C10.8681805,13.6979895 11.8832295,12.6958883 11.8832295,11.4460053 C11.8832295,10.1961892 10.8681135,9.19402109 9.60213775,9.19402109 Z M18.3537105,7.00111521 C17.0875184,7.00111521 16.072229,8.00338763 16.072229,9.25348422 C16.072229,10.5035139 17.0875184,11.5058532 18.3537105,11.5058532 C19.6199695,11.5058532 20.635192,10.5035808 20.635192,9.25348422 C20.635192,8.00345456 19.6199026,7.00111521 18.3537105,7.00111521 Z" id="Shape" fill="#9C6136"></path>
    </g>
</svg>