<svg height="28" viewBox="0 0 28 28" width="28" xmlns="http://www.w3.org/2000/svg"><g fill="none" opacity=".898664"><circle cx="14" cy="14" fill="#ec955e" fill-rule="evenodd" r="14"/><path d="m12.5416667 11.1416783v-3.43909997c0-.38802166-.3092717-.70257833-.694995-.70257833h-.0683375c-.3838334 0-.694995.32498667-.694995.70257833v3.43909997h-1.45833337v-3.43909997c0-.38802166-.30927166-.70257833-.694995-.70257833h-.0683375c-.38383333 0-.694995.32498667-.694995.70257833v3.43909997c0 1.6076667 1.45833334 2.8583334 2.84374997 2.8583334l-.189245 6.0559333c-.0162936.5213833.3836584.944055.895755.944055h.1911584c.511 0 .9078883-.41692.88592-.944055l-.2523267-6.0559333c1.4583333 0 3.2083333-1.2506667 2.9166667-2.8583334v-3.43909997c0-.38802166-.3092717-.70257833-.694995-.70257833h-.0683375c-.3838334 0-.694995.32498667-.694995.70257833v3.43909997h-1.4583334zm3.7916666 3.7916667h1.75v5.1975c0 .4800483.3883834.8692017.875.8692017.483245 0 .875-.3890484.875-.8757584v-13.1238333c-2.443 0-3.5583333 1.69866667-3.5 3.0333333v4.9z" fill="#fff"/></g></svg>