<svg height="28" viewBox="0 0 28 28" width="28" xmlns="http://www.w3.org/2000/svg"><g fill="none" opacity=".898664"><circle cx="14" cy="14" fill="#d85961" fill-rule="evenodd" r="14"/><path d="m21.1291111 17.1111111h-4.0184667v4.0184667c0 .7842644-.6416666 1.4259311-1.4259311 1.4259311h-3.3704222c-.7842644 0-1.4259311-.6416667-1.4259311-1.4259311v-4.0184667h-4.01862222c-.78426445 0-1.4259-.6416667-1.4259-1.4259311v-3.3704222c0-.7842645.64166666-1.4259311 1.4259-1.4259311h4.01862222v-4.0184667c0-.78426444.6416667-1.42593111 1.4259311-1.42593111h3.3704222c.7842645 0 1.4259311.64166667 1.4259311 1.42593111v4.0184667h4.0184667c.7842645 0 1.4259311.6416666 1.4259311 1.4259311v3.3704222c0 .7842644-.6416666 1.4259311-1.4259311 1.4259311z" fill="#fff"/></g></svg>