<?xml version="1.0" encoding="UTF-8"?>
<svg width="28px" height="28px" viewBox="0 0 28 28" version="1.1" xmlns="http://www.w3.org/2000/svg" xmlns:xlink="http://www.w3.org/1999/xlink">
    <title>hospital_light</title>
    <g id="hospital_light" stroke="none" fill="none" fill-rule="evenodd">
        <path d="M14,0 C21.7319865,0 28,6.2680135 28,14 C28,21.7319865 21.7319865,28 14,28 C6.2680135,28 0,21.7319865 0,14 C0,6.2680135 6.2680135,0 14,0 Z M15.6847133,5.44442889 L12.3142911,5.44442889 C11.5300267,5.44442889 10.88836,6.08609556 10.88836,6.87036 L10.88836,10.8888267 L6.86973778,10.8888267 C6.08550444,10.8888267 5.44383778,11.5304933 5.44383778,12.3147578 L5.44383778,15.68518 C5.44383778,16.4694444 6.08547333,17.1111111 6.86973778,17.1111111 L10.88836,17.1111111 L10.88836,21.1295778 C10.88836,21.9138422 11.5300267,22.5555089 12.3142911,22.5555089 L15.6847133,22.5555089 C16.4689778,22.5555089 17.1106444,21.9138422 17.1106444,21.1295778 L17.1106444,17.1111111 L21.1291111,17.1111111 C21.9133756,17.1111111 22.5550422,16.4694444 22.5550422,15.68518 L22.5550422,12.3147578 C22.5550422,11.5304933 21.9133756,10.8888267 21.1291111,10.8888267 L17.1106444,10.8888267 L17.1106444,6.87036 C17.1106444,6.08609556 16.4689778,5.44442889 15.6847133,5.44442889 Z" id="Shape" fill="#D85961"></path>
    </g>
</svg>