<?xml version="1.0" encoding="UTF-8"?>
<svg width="28px" height="28px" viewBox="0 0 28 28" version="1.1" xmlns="http://www.w3.org/2000/svg" xmlns:xlink="http://www.w3.org/1999/xlink">
    <title>atm_light</title>
    <g id="atm_light" stroke="none" fill="none" fill-rule="evenodd">
        <path d="M14,0 C21.7319865,0 28,6.2680135 28,14 C28,21.7319865 21.7319865,28 14,28 C6.2680135,28 0,21.7319865 0,14 C0,6.2680135 6.2680135,0 14,0 Z M20,8 L8,8 C7.17275,8 6.5,8.67275 6.5,9.5 L6.5,18.5 C6.5,19.32725 7.17275,20 8,20 L20,20 C20.82725,20 21.5,19.32725 21.5,18.5 L21.5,9.5 C21.5,8.67275 20.82725,8 20,8 Z M20.00075,14 L20.0015,18.5 L8,18.5 L8,14 L20.00075,14 Z M14,15.5 L9.5,15.5 L9.5,17 L14,17 L14,15.5 Z M20,9.5 L20,11 L8,11 L8,9.5 L20,9.5 Z" id="Shape" fill="#747E86"></path>
    </g>
</svg>