<?xml version="1.0" encoding="UTF-8"?>
<svg width="12px" height="12px" viewBox="0 0 12 12" version="1.1" xmlns="http://www.w3.org/2000/svg" xmlns:xlink="http://www.w3.org/1999/xlink">
    <title>bus-s</title>
    <g id="bus-s" stroke="none" fill="none">
        <rect id="Rectangle" fill="#000000" fill-rule="nonzero" opacity="0.6" x="0" y="0" width="12" height="12" rx="1.875"></rect>
        <rect id="Rectangle" fill="#2F6499" fill-rule="nonzero" x="0.5000025" y="0.5000025" width="11.00025" height="11.00025" rx="1.5"></rect>
        <path d="M3.29508977,9.34523502 C3.44586141,9.39262979 3.60631034,9.41818182 3.77272727,9.41818182 L4.24936364,9.41818182 L4.25,9.73917814 C4.25,10.0027686 4.03631772,10.2164509 3.77272727,10.2164509 C3.50913682,10.2164509 3.29545455,10.0027686 3.29545455,9.73917814 L3.29508977,9.34523502 Z M8.70427756,9.34543375 L8.70454545,9.73917814 C8.70454545,10.0027686 8.49086318,10.2164509 8.22727273,10.2164509 C7.96368228,10.2164509 7.75,10.0027686 7.75,9.73917814 L7.74936364,9.41818182 L8.22727273,9.41818182 C8.3934569,9.41818182 8.55368977,9.39270121 8.70427756,9.34543375 Z M8.22727273,2.1 C8.93018059,2.1 9.5,2.66981941 9.5,3.37272727 L9.5,7.82727273 C9.5,8.53018059 8.93018059,9.1 8.22727273,9.1 L3.77272727,9.1 C3.06981941,9.1 2.5,8.53018059 2.5,7.82727273 L2.5,3.37272727 C2.5,2.66981941 3.06981941,2.1 3.77272727,2.1 L8.22727273,2.1 Z M3.61363668,7.50909091 C3.35004623,7.50909091 3.13636395,7.72277319 3.13636395,7.98636364 C3.13636395,8.24995409 3.35004623,8.46363636 3.61363668,8.46363636 C3.87722713,8.46363636 4.09090941,8.24995409 4.09090941,7.98636364 C4.09090941,7.72277319 3.87722713,7.50909091 3.61363668,7.50909091 Z M8.38636395,7.50909091 C8.12277351,7.50909091 7.90909123,7.72277319 7.90909123,7.98636364 C7.90909123,8.24995409 8.12277351,8.46363636 8.38636395,8.46363636 C8.6499544,8.46363636 8.86363668,8.24995409 8.86363668,7.98636364 C8.86363668,7.72277319 8.6499544,7.50909091 8.38636395,7.50909091 Z M8.86363668,4.00909091 L3.13636395,4.00909091 L3.13636395,6.39545455 C3.13636395,6.74690848 3.42127366,7.03181818 3.77272759,7.03181818 L8.22727305,7.03181818 C8.57872698,7.03181818 8.86363668,6.74690848 8.86363668,6.39545455 L8.86363668,4.00909091 Z M8.22727305,2.73636364 L3.77272759,2.73636364 C3.42127366,2.73636364 3.13636395,3.02127334 3.13636395,3.37272727 L3.13636395,3.69090909 L8.86363668,3.69090909 L8.86363668,3.37272727 C8.86363668,3.02127334 8.57872698,2.73636364 8.22727305,2.73636364 Z" id="Shape" fill="#000000" fill-rule="evenodd"></path>
    </g>
</svg>