<svg height="12" viewBox="0 0 12 12" width="12" xmlns="http://www.w3.org/2000/svg"><g fill="none"><rect fill="#000" height="12" opacity=".6" rx="1.875" width="12"/><rect fill="#2f6499" height="11.00025" rx="1.5" width="11.00025" x=".500003" y=".500003"/><path d="m3.4573332 9.06099952c.1417353.04455422.2925679.06857481.44901081.06857481h.44806967l.00059822.30175775c0 .24779244-.20087546.44866792-.44866789.44866792-.24779244 0-.44866789-.20087548-.44866789-.44866792zm5.08499384.00018682.00025184.37014574c0 .24779244-.20087545.44866792-.44866789.44866792-.24779243 0-.44866789-.20087548-.44866789-.44866792l-.00059822-.30175775h.44926611c.1562241 0 .30685358-.02395345.44841605-.06838799zm-.44841605-6.81118634c.66077983 0 1.19644771.53566789 1.19644771 1.19644771v4.18756699c0 .66077982-.53566788 1.1964477-1.19644771 1.1964477h-4.18756698c-.66077983 0-1.19644771-.53566788-1.19644771-1.1964477v-4.18756699c0-.66077982.53566788-1.19644771 1.19644771-1.19644771zm-4.33712265 5.08490277c-.24779243 0-.44866789.20087546-.44866789.44866789 0 .24779244.20087546.44866789.44866789.44866789.24779244 0 .4486679-.20087545.4486679-.44866789 0-.24779243-.20087546-.44866789-.4486679-.44866789zm4.48667891 0c-.24779243 0-.44866788.20087546-.44866788.44866789 0 .24779244.20087545.44866789.44866788.44866789.24779244 0 .44866789-.20087545.44866789-.44866789 0-.24779243-.20087545-.44866789-.44866789-.44866789zm.44866789-3.2902312h-5.38401469v2.24333945c0 .33038992.26783395.59822385.59822386.59822385h4.18756699c.33038991 0 .59822384-.26783393.59822384-.59822385zm-.59822384-1.19644771h-4.18756699c-.33038991 0-.59822386.26783394-.59822386.59822385v.29911193h5.38401469v-.29911193c0-.33038991-.26783393-.59822385-.59822384-.59822385z" fill="#000" fill-rule="evenodd"/></g></svg>