<?xml version="1.0" encoding="UTF-8"?>
<svg width="18px" height="18px" viewBox="0 0 18 18" version="1.1" xmlns="http://www.w3.org/2000/svg" xmlns:xlink="http://www.w3.org/1999/xlink">
    <title>bus-m</title>
    <g id="bus-m" stroke="none" fill="none">
        <rect id="Rectangle" fill="#000000" fill-rule="nonzero" opacity="0.6" x="0" y="0" width="18" height="18" rx="1.875"></rect>
        <rect id="Rectangle" fill="#2F6499" fill-rule="nonzero" x="0.75" y="0.75" width="16.5" height="16.5" rx="1.5"></rect>
        <path d="M5.13584253,13.8503357 C5.35123059,13.9180426 5.58044335,13.9545455 5.81818182,13.9545455 L6.49909091,13.9545455 L6.5,14.4131116 C6.5,14.7896694 6.1947396,15.0949298 5.81818182,15.0949298 C5.44162403,15.0949298 5.13636364,14.7896694 5.13636364,14.4131116 L5.13584253,13.8503357 Z M12.8632537,13.8506196 L12.8636364,14.4131116 C12.8636364,14.7896694 12.558376,15.0949298 12.1818182,15.0949298 C11.8052604,15.0949298 11.5,14.7896694 11.5,14.4131116 L11.4990909,13.9545455 L12.1818182,13.9545455 C12.4192241,13.9545455 12.6481282,13.9181446 12.8632537,13.8506196 Z M12.1818182,3.5 C13.1859723,3.5 14,4.31402773 14,5.31818182 L14,11.6818182 C14,12.6859723 13.1859723,13.5 12.1818182,13.5 L5.81818182,13.5 C4.81402773,13.5 4,12.6859723 4,11.6818182 L4,5.31818182 C4,4.31402773 4.81402773,3.5 5.81818182,3.5 L12.1818182,3.5 Z M5.59090955,11.2272727 C5.21435176,11.2272727 4.90909136,11.5325331 4.90909136,11.9090909 C4.90909136,12.2856487 5.21435176,12.5909091 5.59090955,12.5909091 C5.96746733,12.5909091 6.27272773,12.2856487 6.27272773,11.9090909 C6.27272773,11.5325331 5.96746733,11.2272727 5.59090955,11.2272727 Z M12.4090914,11.2272727 C12.0325336,11.2272727 11.7272732,11.5325331 11.7272732,11.9090909 C11.7272732,12.2856487 12.0325336,12.5909091 12.4090914,12.5909091 C12.7856491,12.5909091 13.0909095,12.2856487 13.0909095,11.9090909 C13.0909095,11.5325331 12.7856491,11.2272727 12.4090914,11.2272727 Z M13.0909095,6.22727273 L4.90909136,6.22727273 L4.90909136,9.63636364 C4.90909136,10.1384407 5.31610523,10.5454545 5.81818227,10.5454545 L12.1818186,10.5454545 C12.6838957,10.5454545 13.0909095,10.1384407 13.0909095,9.63636364 L13.0909095,6.22727273 Z M12.1818186,4.40909091 L5.81818227,4.40909091 C5.31610523,4.40909091 4.90909136,4.81610477 4.90909136,5.31818182 L4.90909136,5.77272727 L13.0909095,5.77272727 L13.0909095,5.31818182 C13.0909095,4.81610477 12.6838957,4.40909091 12.1818186,4.40909091 Z" id="Shape" fill="#000000" fill-rule="evenodd"></path>
    </g>
</svg>