<svg version="1.1" viewBox="0 0 24 24" width="18" height="18" xmlns="http://www.w3.org/2000/svg">
    <title>dance-m</title>
    <circle id="Oval" cx="12" cy="12" r="12" fill="#000" opacity=".6"/>
    <circle cx="12" cy="12" r="11" fill="#717065"/>
    <g id="dance-m" fill-rule="nonzero">
      <path
	  style="fill:#000;stroke:none;stroke-width:1.29048" id="Shape"
	  d="m 14.640892,5.1330653 c -1.408845,0 -1.408845,2.1132706 0,2.1132706 1.408848,0 1.408848,-2.1132706 0,-2.1132706 z M 9.3577166,7.2463359 C 8.7954093,7.2440113 8.6191711,8.0050431 9.1252568,8.2501394 l 2.1132702,1.0566353 c 0.202816,0.096343 0.444373,0.053965 0.602282,-0.1056635 l 0.824176,-0.8241755 0.390955,0.1267962 v 6.4454761 l -1.954776,1.954774 c -0.366565,0.488755 0.25089,1.106211 0.739645,0.739645 l 2.113271,-2.11327 c 0.09702,-0.09494 0.15378,-0.223589 0.158495,-0.359255 v -1.891379 l 2.039306,2.02874 -0.950971,2.852915 c -0.0981,0.277296 0.04917,0.581316 0.327556,0.676248 0.280372,0.09721 0.585793,-0.05551 0.676248,-0.338124 l 1.056635,-3.169906 c 0.07396,-0.243026 0,-0.390955 -0.126797,-0.528317 L 15.16921,12.835937 V 9.2116776 l 0.147929,0.052832 0.940406,1.9547754 c 0.128041,0.269218 0.453336,0.379245 0.718512,0.243026 L 19.11046,10.352844 C 19.369501,10.220988 19.473374,9.9046473 19.34292,9.644898 19.207107,9.3836206 18.883898,9.2838059 18.624408,9.4230046 L 16.976057,10.268313 16.173014,8.598829 C 16.112204,8.4696003 16.001665,8.3704964 15.86659,8.3241039 L 13.647655,7.5950256 12.696684,7.2780349 C 12.50948,7.2125611 12.301374,7.2574473 12.1578,7.3942648 L 11.365323,8.1867413 9.6007428,7.3097339 C 9.526008,7.2693727 9.4426438,7.2476261 9.3577166,7.2463359 Z M 9.8860343,9.7082961 5.6594931,11.113621 v 3.529162 c -0.9414269,0 -1.4127247,1.138142 -0.7471161,1.803751 0.6656088,0.665609 1.8037514,0.194311 1.8037514,-0.747115 V 12.476681 L 8.829399,11.768735 v 1.817413 c -0.941427,0 -1.4127248,1.138142 -0.747116,1.803751 0.6656086,0.665609 1.8037513,0.194311 1.8037513,-0.747116 z" />
    </g>
</svg>
