<svg height="12" viewBox="0 0 12 12" width="12" xmlns="http://www.w3.org/2000/svg"><g fill="none"><rect fill="#000" height="12" opacity=".6" rx="1.125" width="12"/><rect fill="#2f6499" height="10.5" rx=".75" width="10.5" x=".75" y=".75"/><path d="m7.14285714 2.28571429c1.57794286 0 2.85714286 1.2792 2.85714286 2.85714285v4.57142857c-.31558857 0-.57142857-.25584-.57142857-.57142857v-3.88571428c0-1.32548572-1.07451429-2.4-2.4-2.4h-2.05714286c-1.32548571 0-2.4 1.07451428-2.4 2.4v3.88571428c0 .31558857-.25584.57142857-.57142857.57142857v-4.57142857c0-1.57794285 1.2792-2.85714285 2.85714286-2.85714285zm.15156786 1.71426998c.53465 0 .9747.420515.99895.9546l.15909 3.5c.02328671.51229286-.34316213.95207092-.83735668 1.03237909l-.13889126.01279447-2.92975956.00025789c-.51285 0-.93550918-.38603997-.99327249-.88337882l-.00646961-.13933093.15986355-3.52269775c.024276-.5341.46434-.95462395.99895-.95462395zm-2.694425 4.00000001c-.220915 0-.4.179085-.4.4s.179085.4.4.4.4-.179085.4-.4-.179085-.4-.4-.4zm2.8 0c-.220915 0-.4.179085-.4.4s.179085.4.4.4.4-.179085.4-.4-.179085-.4-.4-.4zm-.2782876-3.25h-2.24345c-.2675024 0-.4876224.210555-.4994974.4778l-.0560481 1.2722005c0 .27614.22386.5.5.5l2.3767505-.0004931c.27587-.012261.489565-.245835.477305-.5217l-.055555-1.25c-.0118775-.267245-.232-.4778074-.499505-.4778074z" fill="#000"/></g></svg>