<svg height="18" viewBox="0 0 18 18" width="18" xmlns="http://www.w3.org/2000/svg"><g fill="none"><rect fill="#000" height="18" opacity=".6" rx="1.875" width="18"/><rect fill="#2f6499" height="16.5" rx="1.5" width="16.5" x=".75" y=".75"/><path d="m10.6923077 3.25c2.3365692 0 4.2307692 1.89419999 4.2307692 4.23076921v6.76923079c-.4673139 0-.8461538-.37884-.8461538-.8461539v-5.75384612c0-1.96273845-1.5911077-3.55384613-3.5538462-3.55384613h-3.04615381c-1.96273846 0-3.55384614 1.59110768-3.55384614 3.55384613v5.75384612c0 .4673139-.37884.8461539-.84615385.8461539v-6.76923079c0-2.33656922 1.89419999-4.23076921 4.23076922-4.23076921zm.224437 2.53843825c.7916932 0 1.4433058.62268566 1.4792144 1.4135423l.2355756 5.18269235c.0344822.7585875-.508144 1.4097973-1.239932 1.5287151l-.2056659.0189456-4.3382978.0003819c-.7594125 0-1.38527321-.571636-1.47080732-1.3080802l-.00958002-.2063169.23672104-5.21630239c.03594715-.79087884.68758038-1.41357776 1.47921441-1.41357776zm-3.98982161 5.92307695c-.32712413 0-.59230769.2651835-.59230769.5923077 0 .3271241.26518356.5923076.59230769.5923076s.59230769-.2651835.59230769-.5923076c0-.3271242-.26518356-.5923077-.59230769-.5923077zm4.14615381 0c-.3271241 0-.5923077.2651835-.5923077.5923077 0 .3271241.2651836.5923076.5923077.5923076s.5923077-.2651835.5923077-.5923076c0-.3271242-.2651836-.5923077-.5923077-.5923077zm-.4120796-4.81250003h-3.32203182c-.39610932 0-.72205624.31178335-.73964037.70751153l-.0829943 1.88383535c0 .40889965.331485.74038465.74038461.74038465l3.51941898-.0007302c.4084998-.0181557.7249329-.36402494.7067786-.77251731l-.0822642-1.85096153c-.0175878-.39572816-.3435385-.70752249-.7396515-.70752249z" fill="#000"/></g></svg>