<svg height="12" viewBox="0 0 12 12" width="12" xmlns="http://www.w3.org/2000/svg"><g fill="none"><rect fill="#000" height="12" opacity=".6" rx="1.875" width="12"/><rect fill="#2f6499" height="11.00025" rx="1.5" width="11.00025" x=".500003" y=".500003"/><path d="m4.516658 9.33.333335-.5h-.85l-1 1.5h.314815c.334355 0 .6466-.1671.83205-.4453l.036467-.0547h3.63335l.036467.0547c.185465.2782.497695.4453.83205.4453h.314815l-1-1.5h-.85l.333335.5h-2.96665zm.17675-7h2.61315c.806 0 1.4679.63695 1.4989 1.44235l.154585 4.0192c.021225.5519-.40895 1.01645-.96085 1.0377-.012805.0004925-.0256185.00075-.038433.00075h-3.9216c-.5523 0-1-.447715-1-1 0-.012815.00024632-.02563.00073885-.038435l.154585-4.01920015c.030977-.8054.6929-1.44236485 1.4989-1.44236485zm-.23182 1.2499825c-.26068 0-.47762.2002925-.49841.4601425l-.12 1.5c-.00106.0132645-.00159.026566-.00159.0398725 0 .27614.22386.5.5.5h3.3168c.013307 0 .026608-.00053.0398725-.00159.275265-.022021.480555-.263015.458535-.5383l-.12-1.5c-.02079-.25985-.237725-.460125-.49841-.460125h-3.0768zm.0384025 4.2500175c.27614 0 .5-.22386.5-.5s-.22386-.5-.5-.5-.5.22386-.5.5.22386.5.5.5zm3 0c.27614 0 .5-.22386.5-.5s-.22386-.5-.5-.5-.5.22386-.5.5.22386.5.5.5zm-2.375-5c-.069035 0-.125.055965-.125.125s.055965.125.125.125h1.75c.069035 0 .125-.055965.125-.125s-.055965-.125-.125-.125z" fill="#000"/></g></svg>