<?xml version="1.0" encoding="UTF-8" standalone="no"?>
<svg
   version="1.1"
   viewBox="0 0 16 16"
   width="12"
   height="12"
   id="svg1"
   xmlns="http://www.w3.org/2000/svg"
   xmlns:svg="http://www.w3.org/2000/svg"
   xmlns:rdf="http://www.w3.org/1999/02/22-rdf-syntax-ns#"
   xmlns:cc="http://creativecommons.org/ns#"
   xmlns:dc="http://purl.org/dc/elements/1.1/">
  <defs
     id="defs1" />
  <title
     id="title1">train-s</title>
  <g
     id="Page-2:-Night"
     fill="none"
     fill-rule="evenodd"
     opacity="1">
    <g
       id="train-s"
       fill-rule="nonzero">
      <rect
         id="Rectangle"
         width="16"
         height="16"
         rx="2.5"
         fill="#000"
         opacity=".6" />
      <rect
         id="rect1"
         x=".66667"
         y=".66667"
         width="14.667"
         height="14.667"
         rx="2"
         fill="#2F6499" />
      <path
         id="train-m-a"
         d="M 6.0222132,12 6.4666598,11.333333 H 5.3333265 l -1.333333,2 h 0.419753 c 0.445807,0 0.862133,-0.2228 1.1094,-0.593733 l 0.04862,-0.07293 h 4.8444665 l 0.04862,0.07293 c 0.247287,0.370933 0.663593,0.593733 1.1094,0.593733 h 0.419753 l -1.333333,-2 H 9.5333398 L 9.9777865,12 H 6.0222532 Z M 6.2578798,2.6666669 h 3.4842001 c 1.0746661,0 1.9572001,0.8492666 1.9985331,1.9231332 l 0.206113,5.3589334 C 11.975026,10.6846 11.40146,11.304 10.665593,11.332333 c -0.01707,6.57e-4 -0.03416,10e-4 -0.05125,10e-4 H 5.3855465 c -0.7364,0 -1.333333,-0.596953 -1.333333,-1.333333 0,-0.017087 3.28e-4,-0.034173 0.001,-0.051247 l 0.206113,-5.3589336 c 0.0413,-1.0738667 0.923867,-1.9231333 1.998533,-1.9231333 z M 5.9487865,4.3333334 c -0.347573,0 -0.636827,0.2670334 -0.664547,0.6135 l -0.16,2 c -0.0014,0.017687 -0.0021,0.03542 -0.0021,0.053167 0,0.3681867 0.29848,0.6666667 0.666667,0.6666667 h 4.4223995 c 0.01774,0 0.03548,-7.334e-4 0.05316,-0.00213 0.36702,-0.02936 0.64074,-0.3506866 0.61138,-0.7177333 l -0.16,-2 c -0.02775,-0.3464704 -0.317,-0.6135037 -0.66458,-0.6135037 H 5.9487665 Z M 5.9999935,10 c 0.3681863,0 0.6666663,-0.2984798 0.6666663,-0.6666665 0,-0.3681866 -0.29848,-0.6666666 -0.6666663,-0.6666666 -0.368187,0 -0.666667,0.29848 -0.666667,0.6666666 C 5.3333265,9.7015202 5.6318065,10 5.9999935,10 Z m 3.9999997,0 C 10.36818,10 10.66666,9.7015202 10.66666,9.3333335 c 0,-0.3681866 -0.29848,-0.6666666 -0.6666668,-0.6666666 -0.3681868,0 -0.6666667,0.29848 -0.6666667,0.6666666 C 9.3333265,9.7015202 9.6318064,10 9.9999932,10 Z M 6.8333265,3.3333334 c -0.092047,0 -0.1666667,0.07462 -0.1666667,0.1666667 0,0.092047 0.07462,0.1666667 0.1666667,0.1666667 h 2.3333333 c 0.092047,0 0.1666667,-0.07462 0.1666667,-0.1666667 0,-0.092047 -0.07462,-0.1666667 -0.1666667,-0.1666667 z"
         style="fill:#000000;fill-opacity:1;stroke-width:0.666667" />
    </g>
  </g>
  <metadata
     id="metadata1">
    <rdf:RDF>
      <cc:Work
         rdf:about="">
        <dc:title>train-s</dc:title>
      </cc:Work>
    </rdf:RDF>
  </metadata>
</svg>
