<?xml version="1.0" encoding="UTF-8" standalone="no"?>
<svg
   version="1.1"
   viewBox="0 0 24 24"
   width="18"
   height="18"
   id="svg1"
   xmlns="http://www.w3.org/2000/svg"
   xmlns:svg="http://www.w3.org/2000/svg"
   xmlns:rdf="http://www.w3.org/1999/02/22-rdf-syntax-ns#"
   xmlns:cc="http://creativecommons.org/ns#"
   xmlns:dc="http://purl.org/dc/elements/1.1/">
  <defs
     id="defs1" />
  <title
     id="title1">train-m</title>
  <g
     id="Page-2:-Night"
     fill="none"
     fill-rule="evenodd"
     opacity="1">
    <g
       id="train-m"
       fill-rule="nonzero">
      <rect
         id="Rectangle"
         width="24"
         height="24"
         rx="2.5"
         fill="#000"
         opacity=".6" />
      <rect
         id="rect1"
         x="1"
         y="1"
         width="22"
         height="22"
         rx="2"
         fill="#2F6499" />
      <path
         id="train-m-a"
         d="m 9.033318,18 0.66667,-1 h -1.7 l -2,3 h 0.62963 c 0.66871,0 1.2932,-0.3342 1.6641,-0.8906 L 8.366652,19 h 7.2667 l 0.07293,0.1094 c 0.37093,0.5564 0.99539,0.8906 1.6641,0.8906 h 0.62963 l -2,-3 h -1.7 l 0.66667,1 h -5.9333 z m 0.3535,-14 h 5.2263 c 1.612,0 2.9358,1.2739 2.9978,2.8847 l 0.30917,8.0384 c 0.04245,1.1038 -0.8179,2.0329 -1.9217,2.0754 C 15.972778,16.999485 15.947148,17 15.921518,17 h -7.8432 c -1.1046,0 -2,-0.89543 -2,-2 0,-0.02563 4.926e-4,-0.05126 0.00148,-0.07687 l 0.30917,-8.0384003 c 0.061954,-1.6108 1.3858,-2.8847 2.9978,-2.8847 z m -0.46364,2.5 c -0.52136,0 -0.95524,0.40055 -0.99682,0.92025 l -0.24,3 c -0.00212,0.02653 -0.00318,0.05313 -0.00318,0.07975 0,0.55228 0.44772,1 1,1 h 6.6336 c 0.02661,0 0.05322,-0.0011 0.07974,-0.0032 0.55053,-0.04404 0.96111,-0.52603 0.91707,-1.0766 l -0.24,-3 c -0.04158,-0.5197 -0.47545,-0.92025 -0.99682,-0.92025 h -6.1536 z M 8.999983,15 c 0.55228,0 1,-0.44772 1,-1 0,-0.55228 -0.44772,-1 -1,-1 -0.55228,0 -1,0.44772 -1,1 0,0.55228 0.44772,1 1,1 z m 6,0 c 0.55228,0 1,-0.44772 1,-1 0,-0.55228 -0.44772,-1 -1,-1 -0.55228,0 -1,0.44772 -1,1 0,0.55228 0.44772,1 1,1 z m -4.75,-10 c -0.13807,0 -0.25,0.11193 -0.25,0.25 0,0.13807 0.11193,0.25 0.25,0.25 h 3.5 c 0.13807,0 0.25,-0.11193 0.25,-0.25 0,-0.13807 -0.11193,-0.25 -0.25,-0.25 z"
         style="fill:#000000;fill-opacity:1" />
    </g>
  </g>
  <metadata
     id="metadata1">
    <rdf:RDF>
      <cc:Work
         rdf:about="">
        <dc:title>train-m</dc:title>
      </cc:Work>
    </rdf:RDF>
  </metadata>
</svg>
