<svg height="18" viewBox="0 0 18 18" width="18" xmlns="http://www.w3.org/2000/svg"><g fill="none"><rect fill="#000" height="18" opacity=".6" rx="1.875" width="18"/><rect fill="#2f6499" height="16.5" rx="1.5" width="16.5" x=".75" y=".75"/><path d="m12.5221538 7c-.075-.9-.75-1.5-1.575-1.5h-1.35000001v-.675c.3 0 .67500001.075 1.05000001.15.3.075.6-.15.75-.525.075-.375-.15-.675-.525-.825-.675-.15-1.35000001-.225-1.95000001-.225h-.075c-1.125 0-1.95.225-2.025.225-.3.15-.45.525-.375.9s.45.6.825.525c.15 0 .525-.15.975-.15v.675h-1.425c-.825-.075-1.5.6-1.5 1.425l-.225 5.55v.075c0 .9.675 1.575 1.575 1.575h4.65000001.075c.9-.075 1.575-.825 1.5-1.65zm-6.30000001 2.775.075-2.175c0-.525.375-.9.825-.9h3.60000001c.45 0 .75.375.825.9l.075 2.175c0 .525-.3.9-.75.9h-.075-3.75000001c-.45 0-.825-.375-.825-.9zm.525 3.375c-.375 0-.675-.3-.675-.675s.3-.675.675-.675.675.225.675.6-.3.75-.675.75zm4.35000001 0c-.375 0-.675-.3-.675-.675s.3-.675.675-.675.675.3.675.675c0 .3-.3.675-.675.675z" fill="#000"/></g></svg>