<svg height="12" viewBox="0 0 12 12" width="12" xmlns="http://www.w3.org/2000/svg"><g fill="none"><rect fill="#000" height="12" opacity=".6" rx="1.875" width="12"/><rect fill="#2f6499" height="11.00025" rx="1.5" width="11.00025" x=".500003" y=".500003"/><path d="m8.32323573 4.7745836c-.04947049-.5936459-.49470492-.98940983-1.03888032-.98940983h-.89046885v-.44523443c.19788196 0 .44523442.04947049.69258688.09894098.19788197.0494705.39576393-.09894098.49470492-.34629344.04947049-.24735246-.09894099-.44523442-.34629345-.54417541-.44523442-.09894098-.89046884-.14841147-1.28623278-.14841147h-.04947049c-.74205737 0-1.28623278.14841147-1.33570327.14841147-.19788197.09894099-.29682295.34629345-.24735246.5936459.04947049.24735246.29682295.39576394.54417541.34629345.09894098 0 .34629344-.09894099.64311639-.09894099v.44523443h-.93993934c-.54417541-.04947049-.98940983.39576393-.98940983.93993934l-.14841148 3.66081638v.04947049c0 .5936459.44523442 1.03888032 1.03888032 1.03888032h3.06717048.0494705c.5936459-.04947049 1.03888032-.54417541.98940983-1.08835081zm-4.1555213 1.83040819.0494705-1.43464426c0-.34629344.24735245-.5936459.5441754-.5936459h2.3745836c.29682295 0 .49470492.24735246.54417541.5936459l.04947049 1.43464426c0 .34629344-.19788197.5936459-.49470492.5936459h-.04947049-2.47352458c-.29682295 0-.54417541-.24735246-.54417541-.5936459zm.34629345 2.22617212c-.24735246 0-.44523443-.19788197-.44523443-.44523442 0-.24735246.19788197-.44523443.44523443-.44523443.24735245 0 .44523442.14841148.44523442.39576393 0 .24735246-.19788197.49470492-.44523442.49470492zm2.86928851 0c-.24735246 0-.44523442-.19788197-.44523442-.44523442 0-.24735246.19788196-.44523443.44523442-.44523443s.44523442.19788197.44523442.44523443c0 .19788196-.19788196.44523442-.44523442.44523442z" fill="#000"/></g></svg>