<svg height="12" viewBox="0 0 12 12" width="12" xmlns="http://www.w3.org/2000/svg"><g fill="none"><rect fill="#000" height="12" opacity=".6" rx="1.875" width="12"/><rect fill="#2f6499" height="11.00025" rx="1.5" width="11.00025" x=".500003" y=".500003"/><path d="m8.52747147 4.58333334c-.05381944-.64583334-.53819445-1.07638889-1.13020833-1.07638889h-.96875v-.48437501c.21527777 0 .484375.05381945.75347222.10763889.21527778.05381945.43055555-.10763889.53819445-.37673611.05381944-.26909722-.1076389-.484375-.37673612-.59201389-.484375-.10763889-.96874999-.16145833-1.39930555-.16145833h-.05381945c-.80729166 0-1.39930555.16145833-1.45312499.16145833-.21527778.10763889-.32291667.37673612-.26909723.64583333.05381945.26909723.32291667.43055557.59201389.37673612.10763889 0 .37673611-.10763889.69965278-.10763889v.484375h-1.02256944c-.59201389-.05381944-1.07638889.43055556-1.07638889 1.02256945l-.16145834 3.98263889v.05381944c0 .64583333.484375 1.13020833 1.13020833 1.13020833h3.33680556.05381945c.64583333-.05381944 1.13020833-.59201389 1.07638889-1.18402777zm-4.52083334 1.99131944.05381946-1.56076389c0-.37673611.26909721-.64583333.59201388-.64583333h2.58333333c.32291667 0 .53819445.26909722.5920139.64583333l.05381944 1.56076389c0 .37673611-.21527778.64583334-.53819445.64583334h-.05381944-2.69097223c-.32291666 0-.59201389-.26909723-.59201389-.64583334zm.37673612 2.421875c-.26909722 0-.484375-.21527778-.484375-.48437499 0-.26909723.21527778-.48437501.484375-.48437501s.484375.16145834.484375.43055555c0 .26909723-.21527778.53819445-.484375.53819445zm3.12152778 0c-.26909723 0-.484375-.21527778-.484375-.48437499 0-.26909723.21527777-.48437501.484375-.48437501.26909722 0 .48437499.21527778.48437499.48437501 0 .21527777-.21527777.48437499-.48437499.48437499z" fill="#000"/></g></svg>