<svg height="19" viewBox="0 0 19 19" width="19" xmlns="http://www.w3.org/2000/svg"><path d="m13.2652325 1.4999815c1.5553364 0 2.8354747 1.22330936 2.9060196 2.77700229l.4628047 10.18176001c.0677427 1.490298-.9982843 2.769645-2.4359329 3.0032674l-.4040447.03722-8.52288834.0007503c-1.49191873 0-2.72146569-1.1230189-2.88950342-2.5698147l-.0188206-.405324.46505496-10.24778934c.07062069-1.55373656 1.35079953-2.77707196 2.9060197-2.77707196zm-7.83828253 11.6362972c-.64265813 0-1.1636297.5209715-1.1636297 1.1636296 0 .6426582.52097157 1.1636298 1.1636297 1.1636298s1.16362973-.5209716 1.16362973-1.1636298c0-.6426581-.5209716-1.1636296-1.16362973-1.1636296zm8.14540793 0c-.6426581 0-1.1636296.5209715-1.1636296 1.1636296 0 .6426582.5209715 1.1636298 1.1636296 1.1636298.6426582 0 1.1636298-.5209716 1.1636298-1.1636298 0-.6426581-.5209716-1.1636296-1.1636298-1.1636296zm-.8095592-9.45449151h-6.5263627c-.77818439 0-1.41852981.61252013-1.45307507 1.3899557l-.16304808 3.70092571c0 .8033119.65122537 1.4545372 1.45453715 1.4545372l6.9141437-.0014344c.8025262-.0356683 1.4241811-.7151524 1.3885158-1.5176641l-.1616137-3.63634287c-.0345525-.77743555-.6749053-1.38997724-1.4530971-1.38997724z" fill="#fff"/></svg>