<svg height="1024" viewBox="0 0 1024 1024" width="1024" xmlns="http://www.w3.org/2000/svg"><path d="m948.40885 0h-872.8177186c-20.0480225 0-39.2749056 7.96406784-53.4510037 22.1401086-14.17607895 14.1760981-22.1401277 33.4030385-22.1401277 53.4510419v872.8176995c0 20.048079 7.96404875 39.275077 22.1401277 53.45112 14.1760981 14.17611 33.4029812 22.14003 53.4510037 22.14003h872.8177186c20.048079 0 39.275077-7.96392 53.45112-22.14003 14.17611-14.176043 22.14003-33.403041 22.14003-53.45112v-872.8176995c0-20.0480034-7.96392-39.2749438-22.14003-53.4510419-14.176043-14.17604076-33.403041-22.1401086-53.45112-22.1401086zm-643.199949 872.320031h-153.955535v-489.031103h153.955535zm-77.084423-556.80003c-17.463596-.098358-34.50674-5.367668-48.978482-15.142902-14.471724-9.775311-25.723481-23.618465-32.335223-39.782352-6.611743-16.163964-8.287138-33.924103-4.814766-51.039343 3.472352-17.115221 11.936877-32.818224 24.32528-45.127349 12.388423-12.309145 28.145493-20.672677 45.282621-24.03508 17.137146-3.362383 34.886264-1.573008 51.00739 5.142401 16.121145 6.715409 29.891744 18.055707 39.573893 32.589978 9.682167 14.534194 14.841928 31.610817 14.828158 49.074643.164725 11.69213-2.026158 23.297706-6.442167 34.124961-4.415951 10.827332-10.966617 20.65482-19.26147 28.896599-8.294873 8.241721-18.164148 14.729152-29.019593 19.075546-10.855464 4.346376-22.474867 6.462736-34.165641 6.222898zm644.551167 557.226671h-153.884412v-267.164358c0-78.791121-33.493375-103.111168-76.728924-103.111168-45.653303 0-90.453419 34.417817-90.453419 105.102242v265.173284h-153.955553v-489.102207h148.053396v67.768927h1.991132c14.86223-30.080017 66.915549-81.493346 146.34666-81.493346 85.902231 0 178.702147 50.98665 178.702147 200.320008z"/></svg>