<svg height="28" viewBox="0 0 28 28" width="28" xmlns="http://www.w3.org/2000/svg"><g fill="none" opacity=".898664"><circle cx="14" cy="14" fill="#717065" fill-rule="evenodd" r="14"/><path d="m17.846514 4.676c-.2889478.0456586-.5278773.24951065-.6184621.52766514-.0905848.2781545-.017519.58361209.1891288.79066819l2.0113333 2.01133334c.371.371.6335.8295.7688334 1.32766666h-.6743334c-1.2798333 0-2.3333333 1.05349997-2.3333333 2.33333337 0 1.2798333 1.0535 2.3333333 2.3333333 2.3333333h.776993v5.4448333c0 .4386667-.3383263.777-.776993.777-.207136.0031729-.4067361-.0776318-.5533304-.2240063s-.2276984-.3458532-.2248362-.5529937v-1.5563333c0-1.2786667-1.0535-2.3333333-2.3333334-2.3333333h-.7781666v-7.77700003c.0012429-.41294278-.1621679-.80934776-.4540543-1.10145318-.2918865-.29210542-.6881688-.45581348-1.1011124-.45488016h-6.22183335c-.4131455-.00124442-.80972842.1623263-1.10186773.45446561s-.45571002.68872223-.45447265 1.10186773v12.44366663c-.00123737.4131455.16233334.8097285.45447265 1.1018678s.68872223.45571 1.10186773.4544726h6.22183335c.4129436.0009263.8092259-.1627818 1.1011124-.4548872.2918864-.2921054.4552972-.6885104.4540543-1.1014532v-3.1103333h.7781666c.4386667 0 .7781667.3383333.7781667.777v1.5563333c0 1.2786667 1.0535 2.3333404 2.3333333 2.3333404 1.2786667 0 2.3333334-1.0546737 2.3333334-2.3333404v-9.3333333c0-1.20209323-.4775338-2.35494971-1.3276667-3.20483333l-2.0113333-2.0125c-.1761743-.17608071-.4259933-.25718514-.672-.21816667zm-9.21433331 3.10216667h4.66666671c.4316666 0 .7781666.3465.7781666.777v3.88966663h-6.22066665v-3.88966663c0-.4305.3465-.777.777-.777zm10.89083331 2.72183333c.6443322 0 1.1666667.5223345 1.1666667 1.1666667s-.5223345 1.1666666-1.1666667 1.1666666-1.1666666-.5223344-1.1666666-1.1666666.5223344-1.1666667 1.1666666-1.1666667z" fill="#000"/></g></svg>