<svg height="15" viewBox="0 0 20 20" width="15" xmlns="http://www.w3.org/2000/svg"><path d="m10.013 2.6065c-.48169-.00339-.94969.19599-1.281.54562-.00154.00156-.00317.00315-.00481.00474-.14997.16568-.23099.37754-.30519.58832h-2.9638c-.4818-.00392-.95078.19497-1.2826.54404-.00215.00208-.00425.00418-.00633.00633-.27762.31236-.43496.72869-.43492 1.1466 0 .39598.13213.81411.4365 1.1529.30188.33724.75948.52425 1.2257.53455l.012652.034794c-2.7942.020283-5.0798 2.3159-5.0798 5.113 0 2.8111 2.3051 5.1162 5.1162 5.1162 2.038 0 3.7379-1.2511 4.5531-2.9891.81442 1.739 2.5159 2.9891 4.5564 2.9891 2.8096 0 5.1146-2.3051 5.1146-5.1162 0-2.8096-2.305-5.1162-5.1146-5.1162-.09511 0-.14172.013218-.2056.025305l-.37164-.93465v-1.9468c.000006-.00105.000006-.00212 0-.00316-.0051-.44292-.18954-.88099-.50292-1.194-.31338-.31303-.75112-.49679-1.194-.50134-.000997-.0000063-.0022-.0000063-.0032 0h-2.2631zm3.9395 3.5853c.05019.096919-.03147-.083775.0095.017395.0124.030624.0031.012334.0015.00633-.0033-.00809-.007-.016001-.01107-.023724z" fill="#fff" opacity=".8"/><path d="m10.001 3.6558c-.77703-.011535-.77703 1.1646 0 1.1535h1.724v1.4599l-3.2211 2.6922-1.1201-2.9987h.31881c.77703.011534.77703-1.1646 0-1.1535h-2.2986c-.77703-.011535-.77703 1.1646 0 1.1535h.74967l1.0237 2.7396c-.53763-.26831-1.1345-.43257-1.7733-.43257-2.2148 0-4.0225 1.8143-4.0225 4.0372s1.8077 4.0372 4.0225 4.0372 4.0225-1.8143 4.0225-4.0372c0-.77273-.23019-1.4892-.60831-2.1043l3.2413-2.7103.532 1.3384c-1.1982.70053-2.0157 1.9896-2.0157 3.4762 0 2.2229 1.8077 4.0372 4.0225 4.0372s4.0225-1.8143 4.0225-4.0372-1.8077-4.0372-4.0225-4.0372c-.32536 0-.63716.050055-.94063.12389l-.78335-1.9668v-2.1943c0-.31848-.25733-.57675-.57464-.57675zm-4.5971 5.7675c.68072 0 1.2959.24443 1.7868.63754l-2.155 1.8024c-.58717.49289.14687 1.3778.73623.88763l2.155-1.8024c.21629.40581.35019.86382.35019 1.3586 0 1.5995-1.2796 2.8838-2.8732 2.8838s-2.8732-1.2843-2.8732-2.8838 1.2794-2.8838 2.8732-2.8838zm9.1941 0c1.5936 0 2.8732 1.2843 2.8732 2.8838s-1.2796 2.8838-2.8732 2.8838-2.8732-1.2843-2.8732-2.8838c0-1.0116.5135-1.8941 1.2929-2.4084l1.0461 2.6224c.28272.71875 1.3566.28849 1.0686-.42806l-1.0437-2.6179c.16573-.02953.3349-.0518.50947-.0518z" fill="#427BB8"/></svg>