<svg height="15" viewBox="0 0 15 15" width="15" xmlns="http://www.w3.org/2000/svg"><path d="m7.5.20117c-.067041.00006653-.13434.005093-.20117.015625-.13244.020495-.26091.061342-.38086.12109l-6 3c-.64169.32156-.90136 1.1023-.58008 1.7441.32156.64169 1.1023.90136 1.7441.58008l.73242-.36719c-.00846.059424-.013678.11964-.013672.17969 0 .29698.099843.61113.32812.86523.22641.25293.5683.39267.91797.40039l.00977.025391c-2.0956.015212-3.8086 1.738-3.8086 3.8359 0 2.1083 1.7275 3.8359 3.8359 3.8359 1.5285 0 2.8046-.93676 3.416-2.2402.61082 1.3042 1.8856 2.2402 3.416 2.2402 2.1072 0 3.8359-1.7275 3.8359-3.8359 0-2.1072-1.7287-3.8379-3.8359-3.8379-.07133 0-.10639.010462-.1543.019531l-.27735-.70117v-1.4629c-.000701-.061321-.007944-.12113-.017578-.18164l2.4512 1.2246c.64183.32128 1.4226.061608 1.7441-.58008.32128-.64183.06161-1.4226-.58008-1.7441l-6-3c-.18158-.090666-.38091-.13692-.58203-.13672z" fill="#fff" opacity=".8" stroke-linecap="round" stroke-linejoin="round"/><path d="m7.5008 4.135c-.58277-.00865-.58277.87345 0 .86512h1.293v1.0949l-2.4158 2.0192-.84008-2.249h.23911c.58277.00865.58277-.87345 0-.86512h-1.724c-.58277-.00865-.58277.87345 0 .86512h.56225l.76778 2.0547c-.40322-.20123-.85088-.32443-1.33-.32443-1.6611 0-3.0169 1.3607-3.0169 3.0279s1.3558 3.0279 3.0169 3.0279 3.0169-1.3607 3.0169-3.0279c0-.57955-.17264-1.1169-.45623-1.5782l2.431-2.0327.399 1.0038c-.89865.5254-1.5118 1.4922-1.5118 2.6072 0 1.6672 1.3558 3.0279 3.0169 3.0279s3.0169-1.3607 3.0169-3.0279-1.3558-3.0279-3.0169-3.0279c-.24402 0-.47787.037541-.70547.092917l-.58751-1.4751v-1.6457c0-.23886-.193-.43256-.43098-.43256zm-3.4478 4.3256c.51054 0 .97192.18332 1.3401.47816l-1.6162 1.3518c-.44038.36967.11015 1.0334.55217.66572l1.6162-1.3518c.16222.30436.26264.64786.26264 1.0189 0 1.1996-.9597 2.1629-2.1549 2.1629s-2.1549-.96322-2.1549-2.1629c0-1.1996.95955-2.1628 2.1549-2.1628zm6.8956 0c1.1952 0 2.1549.96322 2.1549 2.1629 0 1.1996-.9597 2.1628-2.1549 2.1628s-2.1549-.96322-2.1549-2.1628c0-.7587.38512-1.4206.96968-1.8063l.78458 1.9668c.21204.53906 1.0174.21637.80145-.32105l-.78278-1.9634c.1243-.02215.25118-.03885.3821-.03885z" fill="#427BB8"/><path d="m1.5 4.5 6-3 6 3" fill="none" stroke="#427BB8" stroke-linecap="round"/></svg>