<svg height="30" viewBox="0 0 21 30" width="21" xmlns="http://www.w3.org/2000/svg" xmlns:xlink="http://www.w3.org/1999/xlink"><linearGradient id="a" x1="49.999474%" x2="49.999474%" y1="14.285714%" y2="100%"><stop offset="0" stop-color="#fff" stop-opacity=".125"/><stop offset="1" stop-color="#080808" stop-opacity=".125"/></linearGradient><g fill="none" fill-rule="nonzero"><path d="m10.5-.0001c-5.8002 0-10.5 4.7023-10.5 10.4751v.004c.0091588 2.8463 1.1778 5.5656 3.2344 7.5332 1.5502 1.4956 3.4061 2.6146 4.4141 3.6992.50399.54229.7772 1.0253.84375 1.5156.066551.49028-.037971 1.0824-.60352 1.9551-.32744.50519-.50381 1.0951-.50391 1.6973.0000805 1.7081 1.4034 3.121 3.1152 3.121s3.1152-1.4128 3.1152-3.1211c-.0001-.60213-.17647-1.192-.50391-1.6973v-.002c-.56419-.8714-.67001-1.4633-.60352-1.9531.06655-.49028.33976-.97334.84375-1.5156 1.008-1.0846 2.8638-2.2036 4.4141-3.6992 2.0566-1.9674 3.2252-4.6868 3.2344-7.5332v-.004c0-5.7721-4.6998-10.475-10.5-10.475zm0 1.0001c5.2629 0 9.5 4.242 9.5 9.4746-.0083 2.5763-1.0654 5.0381-2.9277 6.8184-2.8606 2.7598-7.4159 4.3931-4.7988 8.4316.22302.34368.34173.7446.3418 1.1543-.000055 1.1714-.94381 2.1211-2.1152 2.1211-1.1714 0-2.1152-.94967-2.1152-2.1211.0000683-.4097.11878-.81061.3418-1.1543 2.6171-4.0385-1.9382-5.6718-4.7988-8.4316-1.8623-1.7802-2.9194-4.242-2.9277-6.8184 0-5.2327 4.2371-9.4746 9.5-9.4746z" fill="#fff" opacity=".6"/><path d="m10.5 1c5.2629 0 9.5 4.242 9.5 9.4746-.0083 2.5763-1.0654 5.0381-2.9277 6.8184-2.8606 2.7598-7.4159 4.3931-4.7988 8.4316.22302.34368.34173.7446.3418 1.1543-.000055 1.1714-.94381 2.1211-2.1152 2.1211-1.1714 0-2.1152-.94967-2.1152-2.1211.0000683-.4097.11878-.81061.3418-1.1543 2.6171-4.0385-1.9382-5.6718-4.7988-8.4316-1.8623-1.7802-2.9194-4.242-2.9277-6.8184 0-5.2327 4.2371-9.4746 9.5-9.4746z" fill="url(#a)"/><path d="m12.7719997 5.5c.9384703 0 1.7108896.7381294 1.7534555 1.67560807l.2792505 6.14354523c.0408751.899227-.6023521 1.6711688-1.4698111 1.8121336l-.2437955.0224581-5.14260304.0004527c-.9002049 0-1.64209799-.6776154-1.74348983-1.5505937l-.01135611-.2445674.28060828-6.18338649c.04261163-.937505.81505536-1.67565011 1.75345557-1.67565011zm-4.72952056 7.0211946c-.38777179 0-.70211945.3143476-.70211945.7021194s.31434766.7021195.70211945.7021195c.3877718 0 .70211945-.3143477.70211945-.7021195s-.31434765-.7021194-.70211945-.7021194zm4.91483616 0c-.3877718 0-.7021194.3143476-.7021194.7021194s.3143476.7021195.7021194.7021195.7021195-.3143477.7021195-.7021195-.3143477-.7021194-.7021195-.7021194zm-.4884778-5.70472063h-3.93792475c-.4695466 0-.85592293.3695869-.8767671.83868169l-.09838115 2.2330918c0 .48470824.39294115.87764934.87764931.87764934l4.17190689-.0008655c.4842342-.0215218.8593329-.4315139.8378129-.91573935l-.0975157-2.19412329c-.0208485-.46909478-.4072293-.83869469-.8767804-.83869469z" fill="#fff"/></g></svg>