<svg height="18" viewBox="0 0 18 18" width="18" xmlns="http://www.w3.org/2000/svg"><g fill="none"><rect fill="#fff" height="18" opacity=".6" rx="1.875" width="18"/><rect fill="#2f6499" height="16.5" rx="1.5" width="16.5" x=".75" y=".75"/><path d="m5.17 13.7655956c.25262545.0671526.52146569.1033566.8003056.1033566h.79862814l.00106626.4548118c0 .3734748-.35803538.676236-.7996944.676236-.44165903 0-.7996944-.3027612-.7996944-.676236zm7.6595513.0002816.0004487.5578868c0 .3734748-.3579336.676236-.799467.676236-.4415335 0-.799467-.3027612-.799467-.676236l-.001066-.4548118h.800533c.2783706 0 .5467725-.0361028.7990183-.103075zm-.6737832-10.2658772c.9959329 0 1.803296.80736314 1.803296 1.80329603v6.31153617c0 .9959329-.8073631 1.803296-1.803296 1.803296h-6.31153616c-.99593289 0-1.80329603-.8073631-1.80329603-1.803296v-6.31153617c0-.99593289.80736314-1.80329603 1.80329603-1.80329603zm-6.28953208 7.6640081c-.37347484 0-.67623602.3027612-.67623602.676236 0 .3734749.30276118.6762361.67623602.6762361.37347483 0 .67623601-.3027612.67623601-.6762361 0-.3734748-.30276118-.676236-.67623601-.676236zm6.25999998 0c-.3734748 0-.676236.3027612-.676236.676236 0 .3734749.3027612.6762361.676236.6762361s.676236-.3027612.676236-.6762361c0-.3734748-.3027612-.676236-.676236-.676236zm.673764-4.6140081h-7.61v2.90526319c0 .42787536.37856812.77473681.84555556.77473681h5.91888884c.4669875 0 .8455556-.34686145.8455556-.77473681zm-.8455556-1.9h-5.91888884c-.46698744 0-.84555556.40368156-.84555556.90164802v.450824h7.61v-.450824c0-.49796646-.3785681-.90164802-.8455556-.90164802z" fill="#fff" fill-rule="evenodd"/></g></svg>