<svg height="18" viewBox="0 0 18 18" width="18" xmlns="http://www.w3.org/2000/svg"><g fill="none"><rect fill="#fff" height="18" opacity=".6" rx="1.875" width="18"/><rect fill="#2f6499" height="16.5" rx="1.5" width="16.5" x=".75" y=".75"/><path d="m14.75 1.75v1.21916116l-4.8875 1.37785584-.00095833 2.40644133 2.58845843.00033042c.3194325 0 .6005361.21081784.689991.51746901l.3366987 1.17306001.1343401.49235695c.2599553.98132139.3243868 1.44108868.3243868 2.04004008l-.0027749.2027852-.00913.1977571c-.0444863.6904555-.2279516 1.4004243-.7835207 3.3049147-.0894549.3066512-.3705585.517469-.689991.517469h-6.13333339c-.31943247 0-.60053607-.2108178-.68999095-.5174689l-.3366988-1.17306-.12830635-.4696182c-.24982261-.9399151-.32227488-1.4045408-.32975208-1.9603772l.00000001-.2048035.01208139-.3110086c.04593467-.68645296.23055726-1.39938519.78267583-3.29204667.08945487-.30665116.37055847-.51746898.68999095-.51746898l2.39487496-.00033042.00095833-2.0826184-5.4625 1.54191183v-1.21916116zm-2.8395417 6.44128875h-5.0552083l-.24930628.88858402-.16004334.61795213c-.12908363.5367479-.1709445.8562564-.17649045 1.1958867v.1660064c.00595656.364776.05380452.7063404.20661694 1.3187755l5.81297313.0015065.0203203-.077167c.1242651-.5089233.1724591-.8256331.1850154-1.1386531l.003581-.1874651-.0037891-.1925739c-.0198028-.4789069-.1235154-.9688483-.4558774-2.14468239z" fill="#fff"/></g></svg>