<svg height="12" viewBox="0 0 12 12" width="12" xmlns="http://www.w3.org/2000/svg"><g fill="none"><rect fill="#fff" height="12" opacity=".6" rx="1.875" width="12"/><rect fill="#2f6499" height="11.00025" rx="1.5" width="11.00025" x=".500003" y=".500003"/><path d="m9.74871325 1.25v.79496869l-3.18695313.89844747-.00062489 1.569149 1.68783544.00021545c.20828979 0 .39158678.13746631.4499169.33742189l.21954847.76490788.08759805.32104727c.16950698.63988241.21152031.9396792.21152031 1.33023265l-.00180936.13222854-.00595334.12894987c-.02900783.45021984-.14863856.9131635-.51090413 2.1550094-.05833012.19995558-.24162711.33742189-.4499169.33742189h-3.99931377c-.20828979 0-.39158677-.13746629-.4499169-.33742187l-.2195485-.76490784-.0836637-.30622018c-.16289983-.61288299-.2101432-.91584772-.2150188-1.27828751v-.1335446l.00787782-.20279694c.02995225-.44760988.15033763-.91248591.51035318-2.14661858.05833013-.19995557.24162711-.33742187.4499169-.33742187l1.561607-.00021545.0006249-1.35799637-3.5618888 1.00542215v-.7949687zm-1.85155728 4.20011976h-3.29630936l-.16256316.5794119-.10435819.40294312c-.08417053.3499929-.11146641.55833228-.11508271.77979232v.10824642c.00388404.23785661.03508388.46057781.13472706.85992347l3.79041901.00098231.01325008-.05031766c.08102856-.33184956.11245404-.53836402.12064155-.74247246l.00233499-.12223888-.00247067-.12557013c-.01291266-.31227701-.08053972-.63174917-.29726039-1.39846592z" fill="#fff"/></g></svg>