<svg xmlns="http://www.w3.org/2000/svg" width="18" height="18"><circle cx="9" cy="9" r="9" fill="#fff" opacity=".6"/><circle cx="9" cy="9" r="8.25" fill="#7f5933"/><path fill="#fff" fill-rule="evenodd" d="M5.194 4.525h1.35v5.4h-1.35z" style="stroke-width:.9"/><path fill="#fff" fill-rule="evenodd" d="M5.194 5.2h2.7v1.35h-2.7z" style="stroke-width:.9"/><circle cx="5.869" cy="11.613" r="1.688" fill="none" stroke="#fff" stroke-width="1.5"/><path fill="#fff" fill-rule="evenodd" d="M12.506 11.275h-1.575l-.006-.407q0-.754.25-1.24c.166-.324.458-.735.957-1.141q.748-.608.894-.796.225-.297.225-.657 0-.497-.402-.85-.396-.359-1.07-.359-.65 0-1.087.371c-.292.247-.446.624-.555 1.13l-1.568-.194q.067-1.088.923-1.847c.576-.507 1.283-.76 2.214-.76.981 0 1.715.257 2.293.772q.87.765.87 1.787 0 .564-.322 1.069a5.7 5.7 0 0 1-1.251 1.42q-.54.45-.675.724-.126.272-.115.978m-1.687 2.25v-1.8h1.8v1.8z" style="stroke-width:.9"/></svg>