<svg height="9" viewBox="0 0 14 9" width="14" xmlns="http://www.w3.org/2000/svg"><path d="m11.52 1.8815a1.7502 1.7497 0 0 0 -3.0391 0l-.48047.84158-.48047-.84158a1.7502 1.7497 0 0 0 -3.0391 0l-.48047.84158-.48047-.84158a1.7502 1.7497 0 0 0 -1.5195-.88063 1.7502 1.7497 0 0 0 -1 .3378v3.1867l1.4805 2.5931a1.7502 1.7497 0 0 0 3.0391 0l.48047-.84158.48047.84158a1.7502 1.7497 0 0 0 3.0391 0l.48047-.84158.48047.84158a1.7502 1.7497 0 0 0 2.5195.54869v-3.1945z" fill="#fff" opacity=".6"/><path d="m12 4.7405-1.3496-2.3635a.75008.75015 0 0 0 -1.3008 0l-1.3496 2.3616-1.3496-2.3616a.75008.75015 0 0 0 -1.3008 0l-1.3496 2.3616-1.3496-2.3616a.75008.75015 0 0 0 -.65039-.37699v2.262l1.3496 2.3616a.75008.75015 0 0 0 1.3008 0l1.3496-2.3616 1.3496 2.3616a.75008.75015 0 0 0 1.3008 0l1.3496-2.3616 1.3496 2.3616a.75008.75015 0 0 0 .65039.36136z" fill="#54a3b6"/></svg>