<svg height="18" viewBox="0 0 24 24" width="18" xmlns="http://www.w3.org/2000/svg"><g fill="#54a3b6" transform="matrix(1.125 0 0 1.125 5.1094 4.125)"><path d="m7.7656 0c-.67014 0-1.2662.32312-1.6406.82173-.37447-.49861-.97048-.82173-1.6406-.82173-1.1308 0-2.0508.91998-2.0508 2.0508h.82031c0-.67848.55199-1.2305 1.2305-1.2305s1.2305.55199 1.2305 1.2305v1.2852h.82031v-1.2852c0-.67848.55199-1.2305 1.2305-1.2305s1.2305.55199 1.2305 1.2305h.82031c0-1.1308-.91998-2.0508-2.0508-2.0508z"/><path d="m2.4336 4.1562v.82031h.86157c.19056.93494 1.0192 1.6406 2.0095 1.6406h1.6406c.99036 0 1.819-.70569 2.0095-1.6406h.86157v-.82031z"/><path d="m0 7.4375v.82031h.86157c.19053.93494 1.0191 1.6406 2.0095 1.6406h2.0234v.82031h2.4609v-.82031h2.0234c.99036 0 1.819-.70569 2.0095-1.6406h.86157v-.82031z"/><path d="m10.609 13.18c-.19056-.93494-1.0192-1.6406-2.0095-1.6406h-4.9219c-.99036 0-1.819.70569-2.0095 1.6406h-.88892v.82031h10.691v-.82031z"/></g></svg>