<svg height="18" viewBox="0 0 24 24" width="18" xmlns="http://www.w3.org/2000/svg"><g fill="#54a3b6" transform="translate(5.1429 5.1429)"><path d="m12.509 0h-11.304c-.66463 0-1.2054.54072-1.2054 1.2054 0 .66463.54072 1.2054 1.2054 1.2054h.44215c.1867.9158.99841 1.6071 1.9686 1.6071h1.301c.12123.342.39273.61347.73473.73473v3.918c.35044-.016821.6818-.13653.96303-.34918l.24233-.18324.24233.18324c.28122.21265.61259.33236.96303.34918v-3.918c.342-.12123.61347-.39273.73473-.73473h1.301c.97015 0 1.7819-.69134 1.9686-1.6071h.44215c.66463 0 1.2054-.54072 1.2054-1.2054 0-.66463-.54072-1.2054-1.2054-1.2054z"/><path d="m13.312 9.4765c-.46012 0-.90118-.12072-1.291-.3514-.38984.23068-.83089.3514-1.2911.3514-.46018 0-.90123-.12072-1.291-.3514-.38987.23068-.83092.3514-1.2911.3514-.46021 0-.90123-.12072-1.2911-.3514-.38984.23068-.83089.3514-1.2911.3514-.46018 0-.90123-.12072-1.2911-.3514-.38984.23068-.83089.3514-1.291.3514-.46021 0-.90123-.12072-1.2911-.3514-.38987.23068-.83092.3514-1.2911.3514h-.40184v1.6763h.40179c.38202 0 .74467-.12153 1.0487-.35146l.24233-.18324.24233.18324c.30407.22993.66672.35146 1.0487.35146s.74467-.12153 1.0487-.35146l.24233-.18324.24233.18324c.3041.22993.66675.35146 1.0487.35146.38204 0 .7447-.12153 1.0487-.35146l.24233-.18324.24233.18324c.30407.22993.66672.35146 1.0487.35146s.74467-.12153 1.0487-.35146l.24233-.18324.24233.18324c.30407.22993.66672.35146 1.0487.35146.38204 0 .7447-.12153 1.0487-.35146l.24233-.18324.24233.18324c.3041.22993.66675.35146 1.0487.35146h.40179v-1.6763h-.40179z"/><path d="m13.312 11.956c-.46018 0-.90123-.12072-1.2911-.3514-.38984.23068-.83089.3514-1.2911.3514-.46018 0-.90123-.12072-1.291-.3514-.38987.23068-.83092.3514-1.2911.3514-.46021 0-.90123-.12072-1.2911-.3514-.38984.23068-.83089.3514-1.2911.3514-.46018 0-.90123-.12072-1.2911-.3514-.38984.23068-.83089.3514-1.291.3514-.46021 0-.90123-.12072-1.2911-.3514-.38987.23068-.83092.3514-1.2911.3514h-.40184v1.758h13.714v-1.758h-.40179z"/></g></svg>