<svg height="12" viewBox="0 0 16 16" width="12" xmlns="http://www.w3.org/2000/svg"><g fill="#54a3b6" transform="translate(3.4286 3.4286)"><path d="m8.3393 0h-7.5357c-.44309 0-.80357.36048-.80357.80357s.36048.80357.80357.80357h.29477c.12446.61054.66561 1.0714 1.3124 1.0714h.86732c.080821.228.26182.40898.48982.48982v2.612c.23362-.011214.45454-.091018.64202-.23279l.16155-.12216.16155.12216c.18748.14177.40839.22157.64202.23279v-2.612c.228-.080821.40898-.26182.48982-.48982h.86732c.64677 0 1.1879-.46089 1.3124-1.0714h.29477c.44309 0 .80357-.36048.80357-.80357s-.36048-.80357-.80357-.80357z"/><path d="m8.875 6.3176c-.30675 0-.60079-.080482-.86068-.23427-.25989.15379-.55393.23427-.86071.23427-.30679 0-.60082-.080482-.8607-.23427-.25991.15379-.55395.23427-.86071.23427-.3068 0-.60082-.080482-.86071-.23427-.25989.15379-.55393.23427-.86071.23427-.30679 0-.60082-.080482-.86071-.23427-.25989.15379-.55393.23427-.8607.23427-.3068 0-.60082-.080482-.86071-.23427-.25991.15379-.55395.23427-.86071.23427h-.26789v1.1175h.26786c.25468 0 .49645-.081018.69916-.2343l.16155-.12216.16155.12216c.20271.15329.44448.2343.69916.2343s.49645-.081018.69914-.2343l.16155-.12216.16155.12216c.20273.15329.4445.2343.69916.2343.2547 0 .49646-.081018.69916-.2343l.16155-.12216.16155.12216c.20271.15329.44448.2343.69916.2343s.49645-.081018.69916-.2343l.16155-.12216.16155.12216c.20271.15329.44448.2343.69914.2343.2547 0 .49646-.081018.69916-.2343l.16155-.12216.16155.12216c.20273.15329.4445.2343.69916.2343h.26786v-1.1175h-.26786z"/><path d="m8.875 7.9709c-.30679 0-.60082-.080482-.86071-.23427-.25989.15379-.55393.23427-.86071.23427-.30679 0-.60082-.080482-.8607-.23427-.25991.15379-.55395.23427-.86071.23427-.3068 0-.60082-.080482-.86071-.23427-.25989.15379-.55393.23427-.86071.23427-.30679 0-.60082-.080482-.86071-.23427-.25989.15379-.55393.23427-.8607.23427-.3068 0-.60082-.080482-.86071-.23427-.25991.15379-.55395.23427-.86071.23427h-.26789v1.172h9.1429v-1.172h-.26786z"/></g></svg>