<svg height="18" viewBox="0 0 24 24" width="18" xmlns="http://www.w3.org/2000/svg"><path d="m19.333 9.3332c-2.5772 0-4.6665 2.9848-4.6665 6.6667s2.0893 6.6667 4.6665 6.6667 4.6665-2.9848 4.6665-6.6667-2.0893-6.6667-4.6665-6.6667zm-14.015-8.6672c-1.1046.00000001-2 .89543-2 2v17.334c0 1.1046.89543 2 2 2h4.002c1.1046 0 2-.89543 2-2v-4.1973c2.1559-.09596 4.0938-.66055 5.5586-1.9043 1.7298-1.4554 2.4395-3.508 2.4395-5.8105 0-2.229-.65387-4.2126-2.3262-5.6035-1.5815-1.3177-3.7223-1.8184-6.0918-1.8184h-5.5684zm8.1464 15.32a2 2 0 0 0 -1.4777-.65186l-9.3346.0014a2 2 0 0 0 -1.4142 3.414l4.6652 4.6652a2 2 0 0 0 2.8284 0l4.6694-4.6666a2 2 0 0 0 .0635-2.7622z" fill="#fff" opacity=".8"/><g fill="#427BB8"><path d="m19.171 20.187c2.004 0 3.156-1.044 3.156-2.616 0-2.916-3.816-2.136-3.816-3.336 0-.42.432-.66 1.212-.66.564 0 1.272.12 1.836.336l.54-1.56c-.648-.312-1.536-.492-2.304-.492-1.968 0-3.312 1.08-3.312 2.652 0 2.736 3.792 2.04 3.792 3.288 0 .396-.324.624-1.104.624-.648 0-1.5-.144-2.292-.492l-.54 1.596c.792.384 1.788.66 2.832.66zm-.66 1.476h1.884v-2.124h-1.884zm0-9.108h1.884v-2.22h-1.884z" stroke-linecap="round" stroke-linejoin="round"/><path d="m5.333 20h4.0007v-6.1819h1.3197c2.1356 0 3.8034-.4766 4.9515-1.4514 1.1728-.9867 1.7281-2.4236 1.7281-4.2783 0-1.7952-.51944-3.1639-1.6058-4.0674-1.0987-.91541-2.7148-1.3546-4.8134-1.3546l-5.5805.0003zm4.0007-14.301h1.4322c.9876 0 1.6915.19043 2.1484.59463.4691.4161.70229 1.0338.70229 1.9017 0 .84408-.24686 1.4975-.81474 1.9492-.55552.43987-1.4076.70102-2.5311.70102h-.93704zm-6.6808 11.635 4.666 4.666 4.668-4.666z"/></g></svg>