<svg height="11.25" viewBox="0 0 15 15" width="11.25" xmlns="http://www.w3.org/2000/svg"><path d="m10.795.25c-1.0112 0-1.8603.65969-2.1426 1.5762-.60706-.35302-.26369-.1545-1.2715-.74023-.27549-.15996-.52108-.21853-.82031-.23438-.43458-.023011-.88974.15139-1.2148.44141l-1.6621 1.4824c-.72333.64518-.78193 1.7398-.13867 2.4609.18802.21076.41421.36391.6582.46094-.39199.20465-.7535.45996-1.0723.75977l-.027344.025391-.44141.48438-.023438.029297c-.6392.81571-1.0195 1.8411-1.0195 2.9551 0 2.6545 2.1417 4.7988 4.7969 4.7988 1.1139 0 2.1405-.37972 2.957-1.0195l.029297-.023438.48438-.44141.025391-.027344c.15467-.16442.29752-.33872.42773-.52344.25535.17526.56052.28633.90039.30078.96218.04092 1.7465-.66771 1.8223-1.5977l.3125-3.8398c.0408-.49972-.13252-.99435-.48633-1.3574-.34998-.35909-.84298-.55301-1.3477-.52539l-.22656.011719c.23862-.34181.34964-.74083.33398-1.1387.8175-.3343 1.3906-1.1343 1.3906-2.0762 0-1.2449-1.0012-2.2422-2.2441-2.2422z" fill="#fff" opacity=".8"/><path d="m10.795 1.2505c-.68662 0-1.2437.55565-1.2437 1.2422 0 .68658.55702 1.2437 1.2437 1.2437.68654 0 1.2437-.55707 1.2437-1.2437 0-.68654-.55711-1.2422-1.2437-1.2422zm-4.2495.60205c-.19138-.010185-.38489.05244-.53467.18604l-1.6611 1.4824c-.30608.27301-.33309.74273-.060059 1.0488.27305.30606.74277.33316 1.0488.060059l1.2598-1.1235 1.04.60498-1.8369 2.0918c-.76211.12429-1.448.47657-1.9863.98291l.95947.95947c.43386-.3945 1.0108-.63574 1.6421-.63574 1.3464 0 2.4404 1.0954 2.4404 2.4419 0 .63125-.23982 1.2082-.63428 1.6421l.95947.95947c.63933-.67964 1.0312-1.5948 1.0312-2.6016 0-.5998-.13912-1.167-.38672-1.6714l1.002-.055664-.24316 2.9912c-.03334.4088.27087.76643.67969.7998.02047.0017.04129.0029.06152.0029.38278 0 .70813-.2944.73975-.68262l.31201-3.8394c.01747-.21397-.05824-.42491-.20801-.57861-.14984-.15374-.35881-.23583-.57275-.22412l-2.5898.14502 1.4253-1.623c.20301-.23119.26159-.53907.18311-.81445-.04142-.18871-.15696-.36052-.33252-.47021-.0054-.00385-3.4058-1.9805-3.4058-1.9805-.10414-.060466-.21769-.092004-.33252-.098116zm-3.1201 5.7598c-.50549.64507-.80713 1.4563-.80713 2.3394 0 2.0976 1.7007 3.7983 3.7983 3.7983.88305 0 1.6943-.30162 2.3394-.80713l-.96973-.97119c-.3909.26588-.86223.42188-1.3696.42188-1.3464 0-2.4419-1.0954-2.4419-2.4419 0-.50744.15446-.97871.42041-1.3696l-.96973-.96973z" fill="#427BB8"/></svg>