<svg height="12" viewBox="0 0 16 16" width="12" xmlns="http://www.w3.org/2000/svg"><path d="m4 0c-.73689-.00036174-1.3343.5971-1.334 1.334v12c-.0003617.73689.5971 1.3343 1.334 1.334h2.668c.73689.000361 1.3343-.5971 1.334-1.334l-.0019531-3.2461c1.4371-.06384 2.7287-.43853 3.7051-1.2676 1.153-.97001 1.6289-2.337 1.6289-3.873 0-1.486-.43588-2.8071-1.5508-3.7344-1.0553-.87929-2.4837-1.2129-4.0625-1.2129z" fill="#fff" opacity=".8"/><path d="m4 13.333h2.6671l-.0001998-4.5657h.8798c1.4237 0 2.5356-.31773 3.301-.9676.78187-.6578 1.1521-1.6157 1.1521-2.8522 0-1.1968-.34629-2.1093-1.0705-2.7116-.73247-.61027-1.8099-.90307-3.2089-.90307l-3.7203.0002zm2.6669-9.9784h.9548c.6584 0 1.1277.12695 1.4323.39642.31273.2774.46819.6892.46819 1.2678 0 .56272-.16457.99833-.54316 1.2995-.37035.29325-.9384.46735-1.6874.46735h-.62469z" fill="#427BB8"/></svg>