<svg height="18" viewBox="0 0 24 24" width="18" xmlns="http://www.w3.org/2000/svg"><path d="m15.941 10.666a2 2 0 0 0 -1.0879.36133l-6.666 4.666a2 2 0 0 0 0 3.2773l6.666 4.668a2 2 0 0 0 3.1465-1.6387v-1.334h3.334a2 2 0 0 0 2-2v-2.666a2 2 0 0 0 -2-2h-3.334v-1.334a2 2 0 0 0 -2.0586-2zm-13.277-10c-1.1046 0-2 .89543-2 2v17.334c0 1.1046.89543 2 2 2h4.002c1.1046 0 2-.89543 2-2v-4.1973c2.1559-.09596 4.0938-.66055 5.5586-1.9043 1.7298-1.4554 2.4395-3.508 2.4395-5.8105 0-2.229-.65387-4.2126-2.3262-5.6035-1.5815-1.3177-3.7223-1.8184-6.0918-1.8184h-5.5684z" fill="#fff" opacity=".8"/><g fill="#427BB8"><path d="m16 12.667-6.6666 4.6663 6.6666 4.667.00004-3.3337h5.3333v-2.6667h-5.3333z"/><path d="m2.6664 20h4.0007v-6.1819h1.3197c2.1356 0 3.8034-.4766 4.9515-1.4514 1.1728-.9867 1.7281-2.4236 1.7281-4.2783 0-1.7952-.51944-3.1639-1.6058-4.0674-1.0987-.91541-2.7148-1.3546-4.8134-1.3546l-5.5805.0003zm4.0007-14.301h1.4322c.9876 0 1.6915.19043 2.1484.59463.4691.4161.70229 1.0338.70229 1.9017 0 .84408-.24686 1.4975-.81474 1.9492-.55552.43987-1.4076.70102-2.5311.70102h-.93704z"/></g></svg>