<svg height="12" viewBox="0 0 12 12" width="12" xmlns="http://www.w3.org/2000/svg"><g fill="none"><rect fill="#fff" height="12" opacity=".6" rx="1.125" width="12"/><rect fill="#2f6499" height="10.5" rx=".75" width="10.5" x=".75" y=".75"/><path d="m7.15384615 2.25c1.59311539 0 2.88461535 1.2915 2.88461535 2.88461538v4.61538462c-.31862303 0-.57692304-.2583-.57692304-.57692308v-3.92307692c0-1.33823077-1.08484615-2.42307692-2.42307692-2.42307692h-2.07692308c-1.33823077 0-2.42307693 1.08484615-2.42307693 2.42307692v3.92307692c0 .31862308-.2583.57692308-.57692307.57692308v-4.61538462c0-1.59311538 1.2915-2.88461538 2.88461539-2.88461538zm.15302525 1.73075335c.53979086 0 .98407211.42455841 1.00855529.96377884l.16061971 3.53365385c.02351062.51721876-.34646177.96122545-.84540819 1.04230582l-.14022675.01291749-2.95793033.00026037c-.51778125 0-.94450446-.38975189-1.00282319-.89187285l-.00653182-.14067065.1614007-3.55656985c.02450942-.53923557.46880481-.96380302 1.00855529-.96380302zm-2.72033294 4.03846155c-.22303918 0-.40384615.18080697-.40384615.40384615 0 .22303919.18080697.40384616.40384615.40384616s.40384615-.18080697.40384615-.40384616c0-.22303918-.18080697-.40384615-.40384615-.40384615zm2.82692308 0c-.22303918 0-.40384615.18080697-.40384615.40384615 0 .22303919.18080697.40384616.40384615.40384616s.40384615-.18080697.40384615-.40384616c0-.22303918-.18080697-.40384615-.40384615-.40384615zm-.28096344-3.28125h-2.26502164c-.27007454 0-.49231108.21257956-.50430026.48239423l-.05658702 1.2844332c0 .27879519.2260125.50480769.50480769.50480769l2.39960387-.00049784c.2785226-.0123789.49427236-.2481988.48189447-.52671635l-.05608918-1.26201923c-.01199171-.26981466-.23423077-.4824017-.50430793-.4824017z" fill="#fff"/></g></svg>