<svg height="18" viewBox="0 0 18 18" width="18" xmlns="http://www.w3.org/2000/svg"><g fill="none"><rect fill="#fff" height="18" opacity=".6" rx="1.875" width="18"/><rect fill="#2f6499" height="16.5" rx="1.5" width="16.5" x=".75" y=".75"/><path d="m10.5714286 3.89285714c2.1696714 0 3.9285714 1.7589 3.9285714 3.92857143v6.28571433c-.4339343 0-.7857143-.35178-.7857143-.7857143v-5.34285717c0-1.82254286-1.4774571-3.3-3.3-3.3h-2.82857141c-1.82254286 0-3.3 1.47745714-3.3 3.3v5.34285717c0 .4339343-.35178.7857143-.78571429.7857143v-6.28571433c0-2.16967143 1.7589-3.92857143 3.92857143-3.92857143zm.2084058 2.35712124c.7351437 0 1.3402125.57820812 1.3735562 1.312575l.2187488 4.81250002c.0320192.7044027-.471848 1.3090975-1.1513655 1.4195212l-.1909754.0175924-4.02841944.0003546c-.70516875 0-1.28632513-.5308049-1.36574966-1.2146459l-.00889573-.19158.21981239-4.84370939c.0333795-.7343875.6384675-1.31260793 1.37355625-1.31260793zm-3.7048344 5.50000002c-.30375812 0-.55.2462419-.55.55s.24624188.55.55.55c.30375813 0 .55-.2462419.55-.55s-.24624187-.55-.55-.55zm3.85 0c-.3037581 0-.55.2462419-.55.55s.2462419.55.55.55.55-.2462419.55-.55-.2462419-.55-.55-.55zm-.3826454-4.46875002h-3.0847438c-.3678158 0-.6704808.28951312-.68680892.656975l-.07706614 1.74927569c0 .37969253.3078075.68750003.6875.68750003l3.26803196-.000678c.3793212-.0168589.6731519-.3380232.6562944-.71733754l-.0763882-1.71875c-.0163315-.36746187-.319-.65698518-.6868193-.65698518z" fill="#fff"/></g></svg>