<svg height="18" viewBox="0 0 18 18" width="18" xmlns="http://www.w3.org/2000/svg"><g fill="none"><rect fill="#fff" height="18" opacity=".6" rx="1.875" transform="matrix(-1 0 0 1 18 0)" width="18"/><rect fill="#2f6499" height="16.5" rx="1.5" transform="matrix(-1 0 0 1 18 0)" width="16.5" x=".75" y=".75"/><path d="m6.58956925 14.375.54166937-.8125h-1.38125l-1.625 2.4375h.51157438c.54332687 0 1.050725-.2715375 1.35208125-.7236125l.05925887-.0888875h5.90419378l.0592588.0888875c.3013807.452075.8087544.7236125 1.3520813.7236125h.5115744l-1.625-2.4375h-1.38125l.5416693.8125h-4.8208062zm.28721875-11.375h4.2463687c1.30975 0 2.3853375 1.03504375 2.4357125 2.34381875l.2512007 6.53119995c.0344906.8968376-.6645438 1.6517313-1.5613813 1.6862626-.0208081.0008003-.04163.0012187-.0624536.0012187h-6.3726c-.8974875 0-1.625-.7275369-1.625-1.625 0-.0208244.00040027-.0416487.00120063-.0624569l.25120063-6.53120022c.05033762-1.308775 1.1259625-2.34384288 2.4357125-2.34384288zm-.3767075 2.03122156c-.423605 0-.7761325.32547532-.80991625.74773157l-.195 2.43749999c-.0017225.02155482-.00258375.04316975-.00258375.06479282 0 .4487275.3637725.8125.8125.8125h5.3898c.0216239 0 .043238-.00086125.0647928-.00258375.4473056-.03578413.7809019-.42739938.7451194-.8747375l-.195-2.4375c-.0337838-.42225625-.3863031-.74770313-.8099163-.74770313h-4.99979996zm.06240406 6.90627844c.4487275 0 .8125-.3637725.8125-.8125s-.3637725-.8125-.8125-.8125-.8125.3637725-.8125.8125.3637725.8125.8125.8125zm4.87500004 0c.4487275 0 .8125-.3637725.8125-.8125s-.3637725-.8125-.8125-.8125-.8125.3637725-.8125.8125.3637725.8125.8125.8125zm-3.85937504-8.125c-.11218187 0-.203125.09094312-.203125.203125s.09094313.203125.203125.203125h2.84375004c.1121818 0 .203125-.09094312.203125-.203125s-.0909432-.203125-.203125-.203125z" fill="#fff"/></g></svg>