<?xml version="1.0" encoding="UTF-8" standalone="no"?>
<svg
   version="1.1"
   viewBox="0 0 24 24"
   width="18"
   height="18"
   id="svg1"
   xmlns="http://www.w3.org/2000/svg"
   xmlns:svg="http://www.w3.org/2000/svg"
   xmlns:rdf="http://www.w3.org/1999/02/22-rdf-syntax-ns#"
   xmlns:cc="http://creativecommons.org/ns#"
   xmlns:dc="http://purl.org/dc/elements/1.1/">
  <defs
     id="defs1" />
  <title
     id="title1">train-m</title>
  <g
     fill="none"
     fill-rule="evenodd"
     id="g1"
     transform="matrix(-1,0,0,1,24,0)">
    <g
       id="train-m"
       fill-rule="nonzero">
      <rect
         id="Rectangle"
         width="24"
         height="24"
         rx="2.5"
         fill="#ffffff"
         opacity="0.6"
         x="0"
         y="0" />
      <rect
         id="rect1"
         x="1"
         y="1"
         width="22"
         height="22"
         rx="2"
         fill="#2f6499" />
      <path
         id="train-m-a"
         d="m 3.0333,14 0.66667,-1 h -1.7 l -2,3 H 0.6296 c 0.66871,0 1.2932,-0.3342 1.6641,-0.8906 L 2.366634,15 h 7.2667 l 0.072934,0.1094 c 0.37093,0.5564 0.99539,0.8906 1.6641,0.8906 h 0.62963 l -2,-3 h -1.7 l 0.66667,1 h -5.9333 z M 3.3868,0 h 5.2263 c 1.612,0 2.9358,1.2739 2.9978,2.8847 l 0.30917,8.0384 c 0.04245,1.1038 -0.8179,2.0329 -1.9217,2.0754 C 9.97276,12.999485 9.947133,13 9.921504,13 h -7.8432 c -1.1046,0 -2,-0.89543 -2,-2 0,-0.02563 4.9264e-4,-0.05126 0.0014777,-0.07687 l 0.30917,-8.0384003 c 0.061954,-1.6108 1.3858,-2.8847 2.9978,-2.8847 z M 2.92316,2.5 C 2.4018,2.5 1.96792,2.90055 1.92634,3.42025 l -0.24,3 C 1.68422,6.446779 1.68316,6.473382 1.68316,6.499995 c 0,0.55228 0.44772,1 1,1 h 6.6336 c 0.026614,0 0.053216,-0.00106 0.079745,-0.00318 0.55053,-0.044042 0.96111,-0.52603 0.91707,-1.0766 l -0.24,-3 c -0.04158,-0.5197 -0.47545,-0.92025 -0.99682,-0.92025 h -6.1536 z M 2.999965,11 c 0.55228,0 1,-0.44772 1,-1 0,-0.55228 -0.44772,-1 -1,-1 -0.55228,0 -1,0.44772 -1,1 0,0.55228 0.44772,1 1,1 z m 6,0 c 0.55228,0 1,-0.44772 1,-1 0,-0.55228 -0.44772,-1 -1,-1 -0.55228,0 -1,0.44772 -1,1 0,0.55228 0.44772,1 1,1 z m -4.75,-10 c -0.13807,0 -0.25,0.11193 -0.25,0.25 0,0.13807 0.11193,0.25 0.25,0.25 h 3.5 c 0.13807,0 0.25,-0.11193 0.25,-0.25 0,-0.13807 -0.11193,-0.25 -0.25,-0.25 z"
         transform="matrix(-1,0,0,1,17.999984,4)"
         style="fill:#ffffff;fill-opacity:1" />
    </g>
  </g>
  <metadata
     id="metadata1">
    <rdf:RDF>
      <cc:Work
         rdf:about="">
        <dc:title>train-m</dc:title>
      </cc:Work>
    </rdf:RDF>
  </metadata>
</svg>
