<svg height="18" viewBox="0 0 18 18" width="18" xmlns="http://www.w3.org/2000/svg"><g fill="none"><rect fill="#fff" height="18" opacity=".6" rx="1.875" width="18"/><rect fill="#2f6499" height="16.5" rx="1.5" width="16.5" x=".75" y=".75"/><path d="m12.9135042 6.75c-.0833333-1-.8333333-1.66666667-1.75-1.66666667h-1.49999999v-.75c.33333333 0 .74999999.08333334 1.16666669.16666667.3333333.08333333.6666667-.16666667.8333333-.58333333.0833334-.41666667-.1666666-.75-.5833333-.91666667-.75-.16666667-1.50000002-.25-2.16666669-.25h-.08333333c-1.25 0-2.16666667.25-2.25.25-.33333334.16666667-.5.58333333-.41666667 1s.5.66666667.91666667.58333333c.16666666 0 .58333333-.16666666 1.08333333-.16666666v.75h-1.58333333c-.91666667-.08333334-1.66666667.66666666-1.66666667 1.58333333l-.25 6.1666667v.0833333c0 1 .75 1.75 1.75 1.75h5.16666669.0833333c1-.0833333 1.75-.9166667 1.6666667-1.8333333zm-6.99999999 3.08333333.08333333-2.41666666c0-.58333334.41666667-1 .91666667-1h3.99999999c.5 0 .8333334.41666666.9166667 1l.0833333 2.41666666c0 .58333337-.3333333.99999997-.8333333.99999997h-.0833333-4.16666672c-.5 0-.91666667-.4166666-.91666667-.99999997zm.58333333 3.74999997c-.41666666 0-.75-.3333333-.75-.75 0-.4166666.33333334-.75.75-.75.41666667 0 .75.25.75.6666667s-.33333333.8333333-.75.8333333zm4.83333336 0c-.4166667 0-.75-.3333333-.75-.75 0-.4166666.3333333-.75.75-.75s.75.3333334.75.75c0 .3333334-.3333333.75-.75.75z" fill="#fff"/></g></svg>