<svg height="12" viewBox="0 0 16 16" width="12" xmlns="http://www.w3.org/2000/svg"><path d="m2.8382 10.989c1.1912 0 1.9853.50738 2.7794.50712.79412.000254 1.1912-.50712 2.3824-.50712s1.5882.50687 2.3824.50712c.79412.000254 1.5882-.50712 2.7794-.50712.52139 0 1.0787.1918 1.5882.31695v1.0301s-1.031-.33283-1.5882-.33283c-.79412 0-1.5882.50712-2.7794.50712s-1.5882-.50687-2.3824-.50712c-.81515.0176-1.1912.50712-2.3824.50712s-1.9853-.50738-2.7794-.50712c-.79412.000253-1.5882.33283-1.5882.33283v-1.0301c.52431-.11162 1.0371-.31695 1.5882-.31695zm0 3c1.1912 0 1.9853.50738 2.7794.50712.79412.000254 1.1912-.50712 2.3824-.50712s1.5882.50687 2.3824.50712c.79412.000254 1.5882-.50712 2.7794-.50712.52139 0 1.0787.19179 1.5882.31695v1.0301s-1.031-.33283-1.5882-.33283c-.79412 0-1.5882.50712-2.7794.50712s-1.5882-.50687-2.3824-.50712c-.81515.0176-1.1912.50712-2.3824.50712s-1.9853-.50738-2.7794-.50712c-.79412.000253-1.5882.33283-1.5882.33283v-1.0301c.52431-.11162 1.0371-.31695 1.5882-.31695zm2.7923-13.5c.12794.34913.36329.69058.36329 1.0576 0 .7932-.58155 1.322-.58126 1.8508-.0002908.5288.58126.7932.58126 1.5864s-.58097 1.0576-.58126 1.5864c-.0002908.5288.58126 1.0576.58126 1.8508 0 .34719-.21983.71832-.36329 1.0576h-1.1807s.38148-.68656.38148-1.0576c0-.5288-.58126-1.0576-.58126-1.8508s.58097-1.0576.58126-1.5864c-.02017-.5428-.58126-.7932-.58126-1.5864s.58155-1.322.58126-1.8508c-.0002906-.5288-.38148-1.0576-.38148-1.0576zm3 0c.12794.34913.36329.69058.36329 1.0576 0 .7932-.58155 1.322-.58126 1.8508-.0002907.5288.58126.7932.58126 1.5864s-.58097 1.0576-.58126 1.5864c-.0002907.5288.58126 1.0576.58126 1.8508 0 .34719-.21983.71832-.36329 1.0576h-1.1807s.38148-.68656.38148-1.0576c0-.5288-.58126-1.0576-.58126-1.8508s.58097-1.0576.58126-1.5864c-.02017-.5428-.58126-.7932-.58126-1.5864s.58155-1.322.58126-1.8508c-.0002906-.5288-.38148-1.0576-.38148-1.0576zm3 0c.12794.34913.36329.69058.36329 1.0576 0 .7932-.58156 1.322-.58126 1.8508-.000291.5288.58126.7932.58126 1.5864s-.58097 1.0576-.58126 1.5864c-.000291.5288.58126 1.0576.58126 1.8508 0 .34719-.21983.71832-.36329 1.0576h-1.1807s.38148-.68656.38148-1.0576c0-.5288-.58126-1.0576-.58126-1.8508s.58097-1.0576.58126-1.5864c-.02017-.5428-.58126-.7932-.58126-1.5864s.58155-1.322.58126-1.8508c-.000291-.5288-.38148-1.0576-.38148-1.0576z" fill="#54a3b6" stroke-width="1.5"/></svg>