<svg height="18" viewBox="0 0 24 24" width="18" xmlns="http://www.w3.org/2000/svg"><path d="m6.5337 14c1.1503 0 1.9171.51148 2.6839.51123.76684.000256 1.1503-.51123 2.3005-.51123s1.5337.51097 2.3005.51123c.76684.000256 1.5337-.51123 2.6839-.51123.50348 0 1.0417.19335 1.5337.31952v1.0385s-.99562-.33552-1.5337-.33552c-.76684 0-1.5337.51123-2.6839.51123s-1.5337-.51097-2.3005-.51123c-.78714.01774-1.1503.51123-2.3005.51123-1.1503 0-1.9171-.51148-2.6839-.51123-.76684.000256-1.5337.33552-1.5337.33552v-1.0385c.5063-.11252 1.0014-.31952 1.5337-.31952zm-1.5337 2.3195c.5063-.11252 1.0014-.31952 1.5337-.31952 1.1503 0 1.9171.51148 2.6839.51123.76684.000256 1.1503-.51123 2.3005-.51123s1.5337.51097 2.3005.51123c.76684.000256 1.5337-.51123 2.6839-.51123.50348 0 1.0417.19335 1.5337.31952v1.0385s-.99562-.33552-1.5337-.33552c-.76684 0-1.5337.51123-2.6839.51123s-1.5337-.51097-2.3005-.51123c-.78714.01774-1.1503.51123-2.3005.51123-1.1503 0-1.9171-.51148-2.6839-.51123-.76684.000256-1.5337.33552-1.5337.33552zm5.9106-12.32c.08439.35196.23964.69616.23964 1.0661 0 .79961-.38361 1.3327-.38342 1.8658-.000191.53307.38342.79961.38342 1.5992s-.38323 1.0661-.38342 1.5992c-.000191.53307.38342 1.0661.38342 1.8658 0 .35-.14501.72413-.23964 1.0661h-.77884s.25164-.69212.25164-1.0661c0-.53307-.38342-1.0661-.38342-1.8658 0-.79961.38323-1.0661.38342-1.5992-.013305-.54719-.38342-.79961-.38342-1.5992 0-.79961.38361-1.3327.38342-1.8658-.000192-.53307-.25164-1.0661-.25164-1.0661zm-2 0c.084391.35196.23964.69616.23964 1.0661 0 .79961-.38361 1.3327-.38342 1.8658-.0001917.53307.38342.79961.38342 1.5992s-.38323 1.0661-.38342 1.5992.38342 1.0661.38342 1.8658c0 .35-.14501.72413-.23964 1.0661h-.77884s.25164-.69212.25164-1.0661c0-.53307-.38342-1.0661-.38342-1.8658 0-.79961.38323-1.0661.38342-1.5992-.013305-.54719-.38342-.79961-.38342-1.5992 0-.79961.38361-1.3327.38342-1.8658s-.25164-1.0661-.25164-1.0661zm4 0c.08439.35196.23964.69616.23964 1.0661 0 .79961-.38361 1.3327-.38342 1.8658-.000191.53307.38342.79961.38342 1.5992s-.38323 1.0661-.38342 1.5992c-.000191.53307.38342 1.0661.38342 1.8658 0 .35-.14501.72413-.23964 1.0661h-.77884s.25164-.69212.25164-1.0661c0-.53307-.38342-1.0661-.38342-1.8658 0-.79961.38323-1.0661.38342-1.5992-.013305-.54719-.38342-.79961-.38342-1.5992 0-.79961.38361-1.3327.38342-1.8658-.000192-.53307-.25164-1.0661-.25164-1.0661zm2.002 0c.08439.35196.23964.69616.23964 1.0661 0 .79961-.38361 1.3327-.38342 1.8658-.000192.53307.38342.79961.38342 1.5992s-.38323 1.0661-.38342 1.5992.38342 1.0661.38342 1.8658c0 .35-.14501.72413-.23964 1.0661h-.77884s.25164-.69212.25164-1.0661c0-.53307-.38342-1.0661-.38342-1.8658 0-.79961.38323-1.0661.38342-1.5992-.0133-.54719-.38342-.79961-.38342-1.5992 0-.79961.38361-1.3327.38342-1.8658-.000191-.53307-.25164-1.0661-.25164-1.0661z" fill="#54a3b6" transform="matrix(1.5 0 0 1.5 -5.2772 -4.1503)"/></svg>