<svg height="28" viewBox="0 0 28 28" width="28" xmlns="http://www.w3.org/2000/svg"><g fill="none" opacity=".898664"><circle cx="14" cy="14" fill="#717065" fill-rule="evenodd" r="14"/><path d="m14 16.98c1.1045695 0 2.1045695.4477153 2.8284271 1.1715729l-2.8284271 2.8284271-2.8284271-2.8284271c.7238576-.7238576 1.7238576-1.1715729 2.8284271-1.1715729zm0-4.5c2.3472102 0 4.4722102.9513949 6.0104076 2.4895924l-1.7677669 1.7677669c-1.0857865-1.0857864-2.5857865-1.7573593-4.2426407-1.7573593s-3.1568542.6715729-4.24264069 1.7573593l-1.76776695-1.7677669c1.53819745-1.5381975 3.66319744-2.4895924 6.01040764-2.4895924zm0-4.5c3.5898509 0 6.8398509 1.45507456 9.1923882 3.8076118l-1.7672673 1.7682667c-1.9001657-1.9004199-4.5253718-3.0758785-7.4251209-3.0758785s-5.52495518 1.1754586-7.42512091 3.0758785l-1.76726725-1.7682667c2.35253729-2.35253724 5.60253726-3.8076118 9.19238816-3.8076118z" fill="#000"/></g></svg>