<?xml version="1.0" encoding="UTF-8"?>
<svg width="28px" height="28px" viewBox="0 0 28 28" version="1.1" xmlns="http://www.w3.org/2000/svg" xmlns:xlink="http://www.w3.org/1999/xlink">
    <title>wifi_light</title>
    <g id="wifi_light" stroke="none" fill="none" fill-rule="evenodd">
        <path d="M14,0 C21.7319865,0 28,6.2680135 28,14 C28,21.7319865 21.7319865,28 14,28 C6.2680135,28 0,21.7319865 0,14 C0,6.2680135 6.2680135,0 14,0 Z M14,16.98 C12.8954305,16.98 11.8954305,17.4277153 11.1715729,18.1515729 L14,20.98 L16.8284271,18.1515729 C16.1045695,17.4277153 15.1045695,16.98 14,16.98 Z M14,12.48 C11.6527898,12.48 9.52778981,13.4313949 7.98959236,14.9695924 L9.75735931,16.7373593 C10.8431458,15.6515729 12.3431458,14.98 14,14.98 C15.6568542,14.98 17.1568542,15.6515729 18.2426407,16.7373593 L20.0104076,14.9695924 C18.4722102,13.4313949 16.3472102,12.48 14,12.48 Z M14,7.98 C10.4101491,7.98 7.16014913,9.43507456 4.80761184,11.7876118 L6.57487909,13.5558785 C8.47504482,11.6554586 11.1002509,10.48 14,10.48 C16.8997491,10.48 19.5249552,11.6554586 21.4251209,13.5558785 L23.1923882,11.7876118 C20.8398509,9.43507456 17.5898509,7.98 14,7.98 Z" id="Shape" fill="#747E86"></path>
    </g>
</svg>