<svg height="28" viewBox="0 0 28 28" width="28" xmlns="http://www.w3.org/2000/svg"><g fill="none" opacity=".898664"><circle cx="14" cy="14" fill="#717065" fill-rule="evenodd" r="14"/><path d="m8.33758333 7.43983333c-1.3811 0-2.50425 1.15025167-2.50425 2.56584997v6.9340834c0 1.1097916.690515 2.0578833 1.65433334 2.41535-.02986685-.158593-.04739089-.319368-.05240667-.4808067-.00003029-.8088742.31353599-1.5846086.87167531-2.1564454.55813931-.5718368 1.31510047-.892902 2.10425799-.8925213 1.6425149.0004623 2.9737796 1.3654146 2.9737167 3.0489667-.0018818.2131092-.0255585.4254288-.0706417.6334767h10.017c.336665 0 .61068-.2815634.61068-.62664 0-.3450767-.2740266-.6243534-.61068-.6243534h-1.8571c.22582-.3854433.3554717-.8357416.3554717-1.31705v-3.5707c0-3.2706333-2.5946667-5.92920997-5.7855-5.92920997h-7.70641667zm.546875 2.16241667h2.11003337c.3367116 0 .6106916.2793.6106916.624365v2.16475c0 .3450767-.2740266.6243533-.6106916.6243533h-2.11003337c-.336665 0-.61069166-.2793-.61069166-.6243533v-2.16475c0-.34507667.27402666-.624365.61069166-.624365zm7.76346667 1.082375h.1617817c1.4561166 0 2.6387666 1.2146167 2.6387666 2.7070167v4.865h-1.21905v-4.865c0-.8032734-.63588-1.4583334-1.4196-1.4583334h-.1617816c-.783685 0-1.4196.65506-1.4196 1.4583334v4.865h-1.2213834v-4.865c0-1.4924 1.1848667-2.7070167 2.6409834-2.7070167zm-6.2367667 6.3734997c-.47011658-.0002853-.92107214.1909362-1.25358263.5315647s-.519284.8027369-.519284 1.2845856.18677351.9439571.519284 1.2845856.78346605.53185 1.25358263.5315647c.9780906-.0007264 1.7705965-.8136507 1.7705334-1.8161503.0000631-1.0024996-.7924428-1.8154239-1.7705334-1.8161503z" fill="#000"/></g></svg>