<svg height="665" viewBox="0 0 1024 665" width="1024" xmlns="http://www.w3.org/2000/svg"><path d="m1004.00782 60.5313003c41.22212 69.5010087 18.26965 146.9714877-57.475835 198.2806517-.223603.151466-.451119.297073-.682315.436671-32.277511 19.489409-63.514658 32.111198-96.634651 38.708825.630689 14.069402.375959 28.580386-.767479 43.492122-3.311303 43.183106-18.966165 84.742658-44.506469 122.66728l82.649976 33.78726c9.072914 3.708878 13.422007 14.072235 9.71397 23.147207-3.708037 9.074971-14.069045 13.42505-23.14196 9.716172l-91.483995-37.396841c-16.83315 19.73474-36.462934 38.207989-58.479791 55.08462l-1.12699.859388 55.851641 74.05846c5.90246 7.826625 4.344054 18.957331-3.480796 24.861129-7.824851 5.903798-18.953034 4.345039-24.855494-3.481585l-56.662638-75.136755c-30.193951 19.209644-62.425061 34.41397-94.225078 44.680693-16.38783 29.976429-48.933835 50.646091-86.437956 50.646091-38.801611 0-70.692565-19.283945-86.675278-49.913146-31.975452-10.092339-64.412256-25.203972-94.766125-44.380322l-55.886098 74.103437c-5.902459 7.826625-17.030642 9.385385-24.855493 3.481588s-9.383258-17.034504-3.480799-24.861129l55.014737-72.948508c-.830174-.628958-1.657905-1.261053-2.483133-1.896261-22.309721-17.172614-42.10507-35.996156-58.956365-56.120125l-93.838833 38.359266c-9.072915 3.708878-19.433923-.6412-23.14196-9.716172-3.708038-9.074971.641054-19.438329 9.713969-23.147207l85.369571-34.897811c-24.745729-37.689903-39.61476-78.940226-42.218491-121.802523-.900841-14.829527-.951967-29.215032-.153293-43.129851-33.340831-6.56224-64.759909-19.218455-97.2319156-38.825302-.2311951-.139598-.4587102-.285204-.682313-.43667-75.74550662-51.309163-98.698003-128.77964-57.4758939-198.2806492 40.556322-68.37850338 126.8487755-78.3309434 209.7123485-30.4285717 24.620959 14.2330556 48.604912 37.1458303 67.52144 63.6169842.144858.2027094.284147.4077158.417898.6148368 54.41585-30.8715671 126.02091-47.3999049 213.8413-48.8357915 88.363752-1.444775 161.111801 14.2999256 216.390016 45.9771737 18.653634-25.5194245 41.975258-47.5436164 65.898288-61.3732012 82.863568-47.9023759 169.156024-37.94993309 209.712283 30.4285662zm-491.74586 446.5147157c-40.714825 0-67.596119 26.798486-66.685215 63.024346.957172 38.065756 28.171127 63.808048 66.685215 63.808048 36.944445 0 66.59882-29.020782 66.681055-63.454255.086747-36.872198-26.274148-63.378139-66.681055-63.378139zm.252885-430.4871251c-185.607441 3.034731-287.233754 75.4625531-303.727129 202.7620681-1.517063 14.948848 0 0-1.517063 14.948848-1.095452 14.370309-1.163902 29.39509-.212924 45.049971 4.167013 68.596836 45.212159 133.940815 111.013101 184.590223 29.978113 23.075257 63.516409 41.677685 96.908722 54.511941-.235711-2.486524-.385869-5.011109-.450226-7.570533-1.354951-53.885223 39.756141-94.869672 97.732634-94.869672 57.608216 0 97.865535 40.478828 97.738079 94.516058-.005504 2.310792-.098032 4.603701-.27461 6.87571 32.554325-12.807984 65.213008-31.06211 94.582424-53.574715 66.108927-50.674625 107.911524-116.104082 113.173396-184.724807 1.161646-15.149176 1.325918-29.773703.502019-43.836281-1.553035-17.343606 0 0-1.553035-17.343606-6.383839-52.61986-27.534751-96.575918-62.916262-129.701381-51.484327-48.2015085-132.684686-73.404799-240.999126-71.6338241zm-155.370814 291.6681071c25.821476 0 46.75391 20.995204 46.75391 46.894114 0 25.898887-20.932445 46.894102-46.75391 46.894102-25.821487 0-46.75392-20.995215-46.75392-46.894102 0-25.89891 20.932433-46.894114 46.75392-46.894114zm310.660875.428118c25.585743 0 46.327074 20.803524 46.327074 46.465996 0 25.662449-20.741342 46.465984-46.327074 46.465984-25.585742 0-46.327084-20.803535-46.327084-46.465984 0-25.662472 20.741342-46.465996 46.327084-46.465996zm-551.838311-336.418533c-29.6767294 3.4227311-53.4645113 18.3866906-68.7417704 44.1443545-32.0071776 53.9645155-15.0117764 112.9482595 46.3087067 155.4279315l1.5515651 1.062041.8755747.527493c28.1181269 16.827184 54.9802799 27.749871 83.2587999 33.65319 8.820244-55.482467 32.698828-102.262744 71.640574-138.355014 6.653784-6.166908 13.722506-11.99959 21.202613-17.495302l.418866.582307c-16.476467-23.0566144-37.265542-42.9172021-57.795763-54.7854549-34.042686-19.6796409-68.759139-28.2169511-98.719166-24.7615461zm693.869773 24.7615492c-19.55511 11.3045486-39.345065 29.860246-55.419345 51.5222668 7.147028 5.337406 13.922267 11.002859 20.320455 16.993076 39.308953 36.802478 63.260331 84.892276 71.539802 141.331149 27.877737-5.938708 54.407135-16.77879 82.156165-33.369651l1.004337-.605173 1.550808-1.060929c60.701062-42.050584 77.96798-100.273508 47.263569-153.791141l-.954921-1.6368029c-15.277232-25.7576563-39.064996-40.7216134-68.741715-44.1443442-29.960019-3.4554049-64.67647 5.0819056-98.719155 24.7615493z"/></svg>