<?xml version="1.0" encoding="UTF-8"?>
<svg width="28px" height="28px" viewBox="0 0 28 28" version="1.1" xmlns="http://www.w3.org/2000/svg" xmlns:xlink="http://www.w3.org/1999/xlink">
    <title>recycling_dark</title>
    <g id="recycling_dark" stroke="none" fill="none" fill-rule="evenodd">
        <path d="M14,0 C21.7319865,0 28,6.2680135 28,14 C28,21.7319865 21.7319865,28 14,28 C6.2680135,28 0,21.7319865 0,14 C0,6.2680135 6.2680135,0 14,0 Z M17.5427097,16.2238072 L14.3046133,19.4619036 L17.5427097,22.7 L17.5427461,21.0808911 L18.7570171,21.0808911 C19.3722518,21.0808911 19.9308164,20.732796 20.2060066,20.1823306 L21.379806,17.8427947 L17.5427097,17.8427947 L17.5427097,16.2238072 Z M12.6855408,17.8427583 L9.20471166,17.8427947 L8.52471991,18.9842094 C8.28186572,19.3889623 8.26567949,19.8908691 8.47614908,20.3199075 C8.70281704,20.7813304 9.18042624,21.0808547 9.70656985,21.0808547 L12.6855408,21.0808547 L12.6855408,17.8427583 Z M9.83609613,12.0952009 L5.4,13.204231 L6.77613329,14.0299353 L6.44423661,14.5884999 C6.16091076,15.0661091 6.13662534,15.6489592 6.38757022,16.1427668 L7.70711848,18.7817419 L9.54467474,15.6974936 L10.9451262,16.5394327 L9.83609613,12.0952009 Z M20.8778628,12.4272676 L18.0769039,14.0462551 L19.8658893,17.0333617 L20.7806361,17.0333617 C21.3958708,17.0333617 21.9544354,16.6852666 22.2296256,16.1348011 C22.3429572,15.9081332 22.3996236,15.665279 22.3996236,15.4143378 C22.3996236,15.1229127 22.3186718,14.8395869 22.1729556,14.5805343 L20.8778628,12.4272676 Z M15.9236736,5.7 L13.0661298,5.7 L15.5918134,9.90951317 L14.1994089,10.7433166 L18.6436406,11.8523467 L19.7526707,7.40811497 L18.3684018,8.24191842 L17.3160782,6.48523261 C17.0165539,5.99952422 16.4903739,5.7 15.9236736,5.7 Z M12.6455913,6.56634591 C12.3298444,6.04016587 11.5688972,6.04016587 11.2531868,6.56634591 L10.4193833,7.95061481 L9.26178239,9.86916295 L12.0384558,11.5367213 L12.8479738,10.2253086 L13.843676,8.5577503 Z" id="Shape" fill="#717065"></path>
    </g>
</svg>