<svg height="28" viewBox="0 0 28 28" width="28" xmlns="http://www.w3.org/2000/svg"><g fill="none" opacity=".898664"><circle cx="14" cy="14" fill="#717065" fill-rule="evenodd" r="14"/><path d="m9.26178239 9.86916295 1.15760091-1.91854814.8338035-1.3842689c.3157104-.52618004 1.0766576-.52618004 1.3924045 0l1.1980847 1.99140439-.9957022 1.6675583-.809518 1.3114127zm12.91134321 4.71137135-1.2952628-2.1532667-2.8009589 1.6189875 1.7889854 2.9871066h.9147468c.6152347 0 1.1737993-.3480951 1.4489895-.8985606.1133316-.2266679.169998-.4695221.169998-.7204633 0-.2914251-.0809518-.5747509-.226668-.8338035zm-4.6303795 6.5003568h1.214271c.6152347 0 1.1737993-.3480951 1.4489895-.8985605l1.1737994-2.3395359h-3.8370963v-1.6189875l-3.2380964 3.2380964 3.2380964 3.2380964v-1.6189875zm-4.8570839-3.2380964h-3.48095054l-.67999175 1.1414147c-.24285419.4047529-.25904042.9066597-.04857083 1.3356981.22666796.4614229.70427716.7609472 1.23042077.7609472h2.97897095v-3.2380964zm-3.14095467-2.1452525 1.40041867.8418905-1.10903007-4.4442318-4.43609613 1.1090301 1.37613329.8257043-.33189668.5585646c-.28332585.4776092-.30761127 1.0604593-.05666639 1.5542669l1.31954826 2.6389751 1.83755626-3.0842483zm8.82374287-7.45562378-1.0523722-1.75668581c-.2995243-.48570839-.8257043-.78523261-1.3924046-.78523261h-2.8575438l2.5256836 4.20951317-1.3924045.83380343 4.4442317 1.1090301 1.1090301-4.44423173-1.3842689.83380345z" fill="#000"/></g></svg>