<svg height="1024" viewBox="0 0 962 1024" width="962" xmlns="http://www.w3.org/2000/svg"><path d="m472.574106 0c168.324432 0 240.982863 10.3365888 260.162511 13.175497 113.678452 16.7972071 209.570684 103.510036 224.371846 213.530741 8.050247 81.727722 1.067093 214.743984 1.023048 236.572345 0 6.418575-.932955 65.06265-1.303335 71.254993-9.960203 157.21305-107.996631 219.298651-211.010159 239.08492-1.393427.416426-3.025099.696713-4.65677 1.017041-65.304899 12.755066-135.272574 16.154549-201.650571 18.012452-15.874262.422433-31.700474.422433-47.574736.422433-65.999916.0176-131.76895-7.793583-195.928709-23.269838-.338347-.08809-.690708-.094096-1.037062-.024024-1.06888.238544-1.810376 1.21255-1.755799 2.306363 1.815675 20.886461 6.355458 41.445723 13.503833 61.154647 8.889106 22.805361 39.93491 77.583476 155.381173 77.583476 67.080801.121478 133.940557-7.691405 199.186046-23.275844.331483-.075046.675548-.075046 1.007032 0 .67408.144265 1.244596.59005 1.547585 1.209239.149034.306776.23029.642038.238244.983007v77.165048c-.012013.364373-.108111.720738-.280287 1.043068-.16617.320328-.404415.600615-.696714.814835-21.321842 15.457835-50.325554 24.252845-75.088921 32.116901-10.942697 3.44786-22.013483 6.47519-33.187997 9.0753-101.835949 23.1909-208.116631 17.5828-306.946437-16.196595-92.306559-32.395186-186.5270784-111.794523-209.8009201-207.200257-12.4274188-51.661455-21.1842285-104.137418-26.2048443-157.034866-5.12713464-56.210524-6.93837416-112.512822-8.65525608-168.892814l-.42911901-14.096608-.28941903-9.399513c-.48689315-15.667028-1.00102998-31.3399-1.61145922-47.018314-2.1902437-55.755116-.93495778-116.541385 10.84310764-171.367549 24.4830805-111.326043 125.4064661-189.2378557 235.9176741-205.570587 19.177646-2.8389082 55.296646-13.175497 223.669127-13.175497zm162.686656 167.55164c-55.344694 0-97.239612 21.315836-125.170224 63.899459l-26.995654 45.240344-26.955614-45.240344c-27.930612-42.583623-69.825529-63.899459-125.264321-63.899459-47.901069 0-86.490601 16.84926-115.910738 49.656868-28.515212 32.891695-42.775821 77.263149-42.775821 133.112361v273.34001h108.272916v-265.289763c0-55.849212 23.506079-84.334393 70.56829-84.334393 52.045315 0 78.160067 33.700524 78.160067 100.250697v145.210754h107.664292v-145.210754c0-66.550173 26.068704-100.250697 78.114019-100.250697 47.342498 0 70.61634 28.485181 70.61634 84.334393v265.289763h108.319057v-273.34001c.029936-55.879243-14.194636-100.250697-42.685823-133.112361-29.514234-32.807608-68.103765-49.656868-115.956786-49.656868z"/></svg>