<svg height="1024" viewBox="0 0 1024 1024" width="1024" xmlns="http://www.w3.org/2000/svg"><path d="m1023.9795 511.98975c0-282.761742-229.227987-511.98975-511.98975-511.98975-282.76172 0-511.98975 229.228008-511.98975 511.98975 0 240.102713 165.311251 441.580941 388.313506 496.91681v-340.452721h-105.572286v-156.464089h105.572286v-67.41881c0-174.260831 78.866922-255.032334 249.953417-255.032334 32.439671 0 88.410433 6.369173 111.306615 12.717846v141.82114c-12.083022-1.269756-33.074623-1.904581-59.145141-1.904581-83.945797 0-116.385532 31.804782-116.385532 114.480908v55.335831h167.236396l-28.732907 156.464089h-138.503489v351.777941c253.516909-30.616989 449.957135-246.471867 449.957135-508.24203z"/></svg>