<svg height="28" viewBox="0 0 28 28" width="28" xmlns="http://www.w3.org/2000/svg"><g fill="none" opacity=".898664"><circle cx="14" cy="14" fill="#747e86" fill-rule="evenodd" r="14"/><path d="m7 9.53073333 7-3.23073333 7 3.23073333v1.07692667h-1.0769267v8.07695h1.0769267v1.6153667h-14v-1.6153667h1.07692667v-8.07695h-1.07692667zm9.6923167 5.74489997c0-1.19035-1.2108834-2.1548333-2.69465-2.1548333-.4929867 0-.8998267-.3214983-.8998267-.7195417 0-.3980433.4020567-.7195416.8998267-.7195416.4977816 0 .8998266.325325.8998266.7195416h1.7949167c0-.93387-.75145-1.72235-1.7949167-2.0209v-.84967163h-1.7949166v.84967163c-1.04342.2985384-1.7949167 1.0869717-1.7949167 2.0209 0 1.19035 1.2108833 2.1548334 2.69465 2.1548334.4977817 0 .8998267.3214983.8998267.7195416 0 .3980434-.4020567.7195417-.8998267.7195417-.4977817 0-.8998267-.325325-.8998267-.7195417h-1.7949166c0 .93387.75145 1.72235 1.7949166 2.0209v.8496717h1.7949167v-.8496717c1.04342-.2985383 1.7949167-1.0869716 1.7949167-2.0209z" fill="#fff"/></g></svg>