<?xml version="1.0" encoding="UTF-8"?>
<svg width="28px" height="28px" viewBox="0 0 28 28" version="1.1" xmlns="http://www.w3.org/2000/svg" xmlns:xlink="http://www.w3.org/1999/xlink">
    <title>bank_dark</title>
    <g id="bank_dark" stroke="none" fill="none" fill-rule="evenodd">
        <path d="M14,0 C21.7319865,0 28,6.2680135 28,14 C28,21.7319865 21.7319865,28 14,28 C6.2680135,28 0,21.7319865 0,14 C0,6.2680135 6.2680135,0 14,0 Z M14,6.3 L7,9.53073333 L7,10.60766 L8.07692667,10.60766 L8.07692667,18.68461 L7,18.68461 L7,20.2999767 L21,20.2999767 L21,18.68461 L19.9230733,18.68461 L19.9230733,10.60766 L21,10.60766 L21,9.53073333 L14,6.3 Z M14.8974933,9.53068667 L14.8974933,10.3803583 C15.94096,10.6789083 16.69241,11.4673883 16.69241,12.4012583 L14.8974933,12.4012583 C14.8974933,12.0070417 14.4954483,11.6817167 13.9976667,11.6817167 C13.4998967,11.6817167 13.09784,12.003215 13.09784,12.4012583 C13.09784,12.7993017 13.50468,13.1208 13.9976667,13.1208 C15.4814333,13.1208 16.6923167,14.0852833 16.6923167,15.2756333 C16.6923167,16.2095617 15.94082,16.997995 14.8974,17.2965333 L14.8974,18.146205 L13.1024833,18.146205 L13.1024833,17.2965333 C12.0590167,16.9979833 11.3075667,16.2095033 11.3075667,15.2756333 L13.1024833,15.2756333 C13.1024833,15.66985 13.5045283,15.995175 14.00231,15.995175 C14.50008,15.995175 14.9021367,15.6736767 14.9021367,15.2756333 C14.9021367,14.87759 14.5000917,14.5560917 14.00231,14.5560917 C12.5185433,14.5560917 11.30766,13.5916083 11.30766,12.4012583 C11.30766,11.46733 12.0591567,10.6788967 13.1025767,10.3803583 L13.1025767,9.53068667 L14.8974933,9.53068667 Z" id="Shape" fill="#717065"></path>
    </g>
</svg>