<svg height="28" viewBox="0 0 28 28" width="28" xmlns="http://www.w3.org/2000/svg"><g fill="none" opacity=".898664"><circle cx="14" cy="14" fill="#bb9342" fill-rule="evenodd" r="14"/><path d="m21 8.42778167c0-.62221834-.5055517-1.12778167-1.1277817-1.12778167h-11.7448333c-.62221833 0-1.12778167.50555167-1.12778167 1.12778167 0 .27221833.1011115.54444833.28778167.74666666l5.9344833 6.68114997v3.88885h-3.11115c-.42778163 0-.77778163.35-.77778163.7777817s.35.7777817.77778163.7777817h7.7778167c.4277817 0 .7777817-.35.7777817-.7777817s-.35-.7777817-.7777817-.7777817h-3.11115v-3.88885l5.9344833-6.68114997c.1866667-.20221833.2877817-.47444833.2877817-.74666666zm-10.5544833 1.98333333-1.3766667-1.55551667h9.87l-1.3844833 1.55551667z" fill="#000"/></g></svg>