<?xml version="1.0" encoding="UTF-8"?>
<svg width="28px" height="28px" viewBox="0 0 28 28" version="1.1" xmlns="http://www.w3.org/2000/svg" xmlns:xlink="http://www.w3.org/1999/xlink">
    <title>nightlife_dark</title>
    <g id="nightlife_dark" stroke="none" fill="none" fill-rule="evenodd">
        <path d="M14,0 C21.7319865,0 28,6.2680135 28,14 C28,21.7319865 21.7319865,28 14,28 C6.2680135,28 0,21.7319865 0,14 C0,6.2680135 6.2680135,0 14,0 Z M19.8722183,7.3 L8.127385,7.3 C7.50516667,7.3 6.99960333,7.80555167 6.99960333,8.42778167 C6.99960333,8.7 7.10071483,8.97223 7.287385,9.17444833 L13.2218683,15.8555983 L13.2218683,19.7444483 L10.1107183,19.7444483 C9.68293667,19.7444483 9.33293667,20.0944483 9.33293667,20.52223 C9.33293667,20.9500117 9.68293667,21.3000117 10.1107183,21.3000117 L17.888535,21.3000117 C18.3163167,21.3000117 18.6663167,20.9500117 18.6663167,20.52223 C18.6663167,20.0944483 18.3163167,19.7444483 17.888535,19.7444483 L14.777385,19.7444483 L14.777385,15.8555983 L20.7118683,9.17444833 C20.898535,8.97223 20.99965,8.7 20.99965,8.42778167 C21,7.80556333 20.4944483,7.3 19.8722183,7.3 Z M18.93885,8.85559833 L17.5543667,10.411115 L10.4455167,10.411115 L9.06885,8.85559833 L18.93885,8.85559833 Z" id="Shape" fill="#BB9342"></path>
    </g>
</svg>