<svg height="1024" viewBox="0 0 1024 1024" width="1024" xmlns="http://www.w3.org/2000/svg" xmlns:xlink="http://www.w3.org/1999/xlink"><linearGradient id="a" x1="33.716946%" x2="59.254492%" y1=".000029%" y2="88.381949%"><stop offset="0" stop-opacity="0"/><stop offset=".49517274" stop-opacity=".3"/><stop offset="1" stop-opacity=".3"/></linearGradient><g fill="none"><path d="m521.612688 238.975048c-1.321339.012733-2.567617.460943-3.403926 1.224613s-1.176869 1.764471-.930162 2.733461l197.242096 739.311955c95.424536-41.098139 176.087488-110.255134 231.274668-198.285096l-420.283172-543.344245c-.812805-1.028307-2.300031-1.653882-3.899504-1.640688z" fill="url(#a)"/><path d="m512 0c-282.779729 0-512 229.231369-512 512.00222 0 96.18728 27.0793775 190.432392 78.1750553 271.93466l426.8775297-551.877713c3.063078-3.98644 10.787359-3.98644 13.850436 0l426.899727 551.899909c51.095678-81.506707 78.197252-175.760697 78.197252-271.956856 0-282.770851-229.220272-512.00222-512-512.00222z" fill="#000"/></g></svg>