<svg height="28" viewBox="0 0 28 28" width="28" xmlns="http://www.w3.org/2000/svg"><g fill="none" opacity=".898664"><circle cx="14" cy="14" fill="#2e89b0" fill-rule="evenodd" r="14"/><path d="m9.35 22.3h3.8340042v-5.920267h1.2647125c2.0466166 0 3.644925-.4564291 4.7451875-1.3899732 1.1239333-.9449405 1.6560958-2.3210274 1.6560958-4.097232 0-1.71922277-.4977967-3.02999607-1.5388917-3.89525776-1.0529208-.87666763-2.6016833-1.29727004-4.6128416-1.29727004l-5.3479792.0002873zm3.8340042-13.69574699h1.372525c.94645 0 1.6210208.18237054 2.0588833.56946382.4495542.39848964.6730279.99004707.6730279 1.82121547 0 .8083565-.2365741 1.4341221-.7807925 1.8667051-.5323733.4212536-1.34895.6713511-2.4256375.6713511h-.8980062z" fill="#fff"/></g></svg>