<svg height="903" viewBox="0 0 1024 903" width="1024" xmlns="http://www.w3.org/2000/svg"><path d="m221.96553 61.8457132c117.399145 88.1358698 243.67526 266.8387118 290.037471 362.7410458 46.365743-95.895272 172.634795-274.606941 290.037472-362.7410458 84.709022-63.59532376 221.959527-112.8017663 221.959527 43.7757438 0 31.270657-17.92872 262.68977-28.444081 300.259756-36.55129 130.619263-169.742895 163.934377-288.219001 143.770524 207.093958 35.246579 259.776684 151.996019 146.002123 268.745458-216.080388 221.730015-310.570317-55.632888-334.793071-126.703367-4.438484-13.028912-6.515427-19.123971-6.54597-13.941148-.030719-5.182999-2.107485.912219-6.54597 13.941148-24.212161 71.070479-118.700324 348.440442-334.793072 126.703367-113.7763259-116.749439-61.095366-233.505941 146.002123-268.745458-118.479636 20.163853-251.6730068-13.151438-288.2189995-143.770524-10.5157121-37.573517-28.4440815-268.99263-28.4440815-300.259756 0-156.5775101 137.254037-107.37106756 221.959527-43.7757438z"/></svg>