<svg height="24" viewBox="0 0 512 512" width="24" xmlns="http://www.w3.org/2000/svg"><g fill="#fff" stroke-width="2.6176"><path d="m460.13 144.59c-.34-.02-.68.03-1.01.16l-14.66 5.5v8.11l12.83-6.02v209.41h-12.83v5.24h15.44c1.57 0 2.62-1.05 2.88-2.62v-216.21s0-.26-.26-.52v-1.31c-.39-.98-1.37-1.67-2.39-1.73zm-408.14 1.3c-.43.03-.82.16-1.21.42-.79.26-1.31 1.31-1.31 2.1v216.21c0 1.57 1.05 2.62 2.62 2.62h15.44v-5.24h-12.56v-209.41l12.56 5.76v-7.07l-11.26-3.93-2.88-1.31c-.52-.13-.98-.19-1.41-.16zm64.23 21.11v5.76l1.57.79 12.3 7.85-9.95-4.45h-.26l-3.66-2.09v192.66h2.36c.79 0 1.31-.26 2.09-.79.79-.52 135.33-59.42 135.33-59.42s136.9 59.94 137.69 60.21c.79.26 2.88 0 2.88 0v-191.87l-23.82 10.47 12.56-7.85 11.26-4.45v-5.5l-13.09 4.97c-.26 0-.26.26-.52.26 0 0-44.76 27.48-45.55 28.01-.79.52-1.57 1.31-1.57 2.36v14.92l-43.19 25.65c-.79.26-1.31 1.31-1.31 2.09l-.26 12.56-23.56 13.87c-1.31.79-.79 2.62-.79 3.93v28.53l-9.95-3.66c-.52-.26-1.31-.26-1.83 0l-8.9 3.66v-28.53c0-1.57.26-2.88-1.05-3.67l-23.56-13.87-.26-12.56c0-.79-.52-1.57-1.31-2.09l-42.93-25.39v-15.44c0-1.05-.52-1.83-1.57-2.36l-3.4-1.57-51.57-31.15c-.26 0-.26-.26-.52-.26l-3.66-1.57zm5.23 16.23 47.12 20.94 2.88 1.57v132.19l-8.9 3.93v-51.83c0-1.31-.78-2.36-2.09-2.62l-25.39-4.45c-.79-.26-1.57 0-2.1.52-.79.52-1.05 1.31-1.05 2.09v69.89l-10.47 4.71v-176.95zm269.61.26v176.95l-11.26-4.97v-70.41c0-.79-.52-1.57-1.05-2.09-.52-.52-1.31-.79-2.1-.52l-25.39 4.45c-1.31.26-2.09 1.31-2.09 2.62v52.35l-7.85-3.4-.26-132.45 50-22.51zm-262.9 19.46c-.49-.02-.98.1-1.47.43-.52.52-1.05 1.31-1.05 2.09v19.37c0 1.31.78 2.36 1.83 2.62l14.4 4.19h.79c.52 0 1.05-.26 1.57-.52.79-.52 1.05-1.31 1.05-2.09v-18.32c0-1.05-.78-2.09-1.83-2.36l-14.4-5.23c-.29-.1-.59-.16-.88-.17zm256.46 0c-.29.01-.59.07-.88.17l-14.4 5.23c-1.05.26-1.83 1.31-1.83 2.36v18.32c0 .79.26 1.57 1.05 2.09.52.26 1.05.52 1.57.52h.79l14.4-4.19c1.05-.52 1.83-1.57 1.83-2.62v-19.37c0-.79-.26-1.57-1.05-2.09-.49-.33-.98-.45-1.47-.43zm-253.74 5.93 9.17 3.4v13.09l-9.16-2.62v-13.87zm251.03.52v13.61l-9.16 2.62v-13.09zm-230.18 1.14c-.49-.02-.98.1-1.47.43-.52.52-1.05 1.31-1.05 2.1v19.37c0 1.31.79 2.36 1.83 2.62l14.66 3.93h.79c.52 0 1.05-.26 1.57-.52.79-.52 1.05-1.31 1.05-2.1v-18.06c0-1.05-.79-2.09-1.83-2.36l-14.66-5.24c-.29-.1-.59-.16-.88-.17zm209.34 0c-.29.01-.59.07-.88.17l-14.4 5.24c-1.05.26-1.83 1.31-1.83 2.36v18.06c0 .79.52 1.57 1.05 2.1.52.26 1.05.52 1.57.52h.79l14.4-3.93c1.05-.52 1.83-1.31 1.83-2.62v-19.37c0-.79-.26-1.57-1.05-2.1-.49-.33-.98-.45-1.47-.43zm-206.62 6.19 9.43 3.41v12.83l-9.42-2.62v-13.61zm203.91 0v13.61l-9.16 2.62v-12.83zm-22.51 8.12v3.4l-22.51 9.95zm-158.89.52 18.59 10.99-18.59-8.11zm0 8.38 38.48 17.01v67.79l-8.9 3.93-.26-24.87c0-1.31-.78-2.09-1.83-2.36l-15.44-2.36c-.79 0-1.31 0-1.83.52s-.79 1.05-.79 1.83l.26 35.86-9.69 4.19v-101.56zm158.89 0v101.82l-10.73-4.71.26-36.12c0-.79-.26-1.31-.79-1.83-.52-.52-1.05-.52-1.83-.52l-15.44 2.36c-1.05.26-1.83 1.31-1.83 2.36l-.26 24.87-7.85-3.4v-67.79l38.48-17.02zm-207.41 6.7c-.65-.01-1.34.23-1.73.63-.79.52-1.05 1.31-1.05 2.09v19.37c0 1.31.78 2.36 2.09 2.62l14.4 3.14h.52c.52 0 1.05-.26 1.83-.52.79-.52 1.05-1.31 1.05-2.09v-18.85c0-1.31-1.05-2.36-2.09-2.62l-14.4-3.66c-.2-.07-.41-.1-.63-.1zm256.17 0c-.2 0-.39.04-.59.1l-14.4 3.66c-1.31.26-2.09 1.31-2.09 2.62v18.85c0 .79.52 1.57 1.05 2.09.52.26 1.05.52 1.57.52h.79l14.4-3.14c1.31-.26 2.09-1.31 2.09-2.62v-19.37c0-.79-.52-1.57-1.05-2.09-.59-.39-1.18-.64-1.77-.63zm-54.16 2.55c-.28.01-.57.07-.87.17l-17.28 6.28c-1.05.26-1.57 1.05-1.57 2.1v11.52c0 .79.52 1.31 1.05 1.83.26.26.79.52 1.31.52.26 0 .53 0 .79-.26l17.27-5.76c1.05-.26 1.57-1.05 1.57-2.09v-12.04c0-.79-.52-1.31-1.05-1.83-.33-.33-.76-.45-1.22-.43zm-147.8.26c-.47-.02-.9.1-1.22.43-.79.26-1.05 1.05-1.05 1.83v12.04c0 .79.52 1.83 1.57 2.09l17.02 5.76h.79c.52 0 1.05-.26 1.31-.26.79-.52 1.05-1.05 1.05-1.83v-11.52c0-.79-.79-1.83-1.57-2.09l-17.02-6.28c-.29-.1-.59-.16-.87-.17zm-30.35 2.69c-.59-.01-1.18.23-1.77.63-.79.52-1.05 1.31-1.05 2.09v19.11c0 1.31.78 2.36 2.09 2.62l14.4 3.4h.52c.52 0 1.05-.26 1.83-.52.79-.52 1.05-1.31 1.05-2.09v-18.85c0-1.31-1.05-2.36-2.09-2.62l-14.4-3.67c-.2-.07-.39-.1-.59-.1zm208.75 0c-.2 0-.39.04-.59.1l-14.4 3.67c-1.31.26-2.09 1.31-2.09 2.62v18.85c0 .79.52 1.57 1.05 2.09.52.26 1.05.52 1.57.52h.79l14.4-3.4c1.31-.26 2.09-1.31 2.09-2.62v-19.11c0-.79-.52-1.57-1.05-2.09-.59-.39-1.18-.64-1.77-.63zm-230.15.62 9.16 2.36v13.61l-9.16-2.1zm251.03 0v13.87l-9.16 2.1v-13.61zm-196.84 1.84 12.56 4.71v6.8l-12.56-4.19v-7.33zm143.18.26v7.07l-12.83 4.19v-6.8l12.83-4.45zm-173.55 3.14 9.16 2.36v13.61l-9.16-2.09v-13.87zm203.65.52v13.61l-9.16 2.09v-13.61zm-66.23 12.04v2.36l-8.9 2.88 8.9-5.23zm-71.46.79 4.72 2.88-4.72-1.57zm-26.52 5.33c-.47-.02-.9.1-1.22.43-.52.52-.79 1.05-.79 1.83v12.3c0 1.05.79 1.83 1.83 2.09l16.49 3.93h.52c.52 0 1.05-.26 1.31-.26.52-.52.79-1.05.79-1.83v-11.78c0-1.05-.52-1.83-1.57-2.09l-16.49-4.45c-.29-.1-.59-.16-.87-.17zm124.44.06c-.17.01-.35.04-.55.11l-16.49 4.45c-.79.26-1.57 1.05-1.57 2.09v11.78c0 .79.26 1.31.79 1.83.26.26 1.57.52 1.83.26l16.49-3.93c1.05 0 1.83-1.05 1.83-2.09v-12.3c0-.79-.26-1.31-.79-1.83-.59-.2-1.03-.39-1.55-.37zm-26.46 1.41v44.24l-5.24-2.36v-15.44c0-.52-.26-1.05-.52-1.31s-.79-.52-1.31-.52l-8.11.52c-1.05 0-1.83.78-1.83 1.83v9.69l-3.14-1.31v-28.79l20.16-6.54zm-71.46.27 20.16 6.8v28.53l-3.4 1.31v-9.95c0-1.05-.79-1.83-1.83-1.83l-8.11-.52c-.52 0-1.05.26-1.31.52s-.52.79-.52 1.31v15.97l-4.97 2.09v-44.24zm-23.82 3.4 12.04 3.14v7.07l-12.04-2.88zm119.62 0v7.59l-12.04 2.88v-7.07zm-84.81 4.45c-3.4 0-6.02 3.14-6.02 6.8s2.62 6.81 6.02 6.81 6.02-3.14 6.02-6.81-2.62-6.8-6.02-6.8zm49.73 0c-3.4 0-6.02 3.14-6.02 6.8s2.62 6.81 6.02 6.81 6.02-3.14 6.02-6.81-2.62-6.8-6.02-6.8zm-49.73 3.66c1.31 0 2.36 1.31 2.36 3.14s-1.05 3.14-2.36 3.14-2.36-1.31-2.36-3.14 1.05-3.14 2.36-3.14zm49.73 0c1.31 0 2.36 1.31 2.36 3.14s-1.05 3.14-2.36 3.14-2.36-1.31-2.36-3.14 1.05-3.14 2.36-3.14zm93.19 4.19v64.92l-20.15-8.64v-52.88zm-237.41.53 20.15 3.66v52.35l-20.15 8.9v-64.92zm183.75 8.63-.26 31.68-11-4.98.27-25.13zm-129.83.79 10.99 1.57.27 24.87-11 4.71zm92.4 2.35v12.04l-4.45-2.09v-9.69zm-54.18.27 4.44.52v9.68l-4.45 2.09v-12.3z"/><path d="m91.35 103.39c-8.11 0-14.66 6.54-14.66 14.66v66.75c0 8.11 6.54 14.66 14.66 14.66s14.66-6.54 14.66-14.66v-52.09h62.3c8.11 0 14.66-6.54 14.66-14.66 0-8.11-6.54-14.66-14.66-14.66zm252.34 0c-8.11 0-14.66 6.54-14.66 14.66 0 8.11 6.54 14.66 14.66 14.66h62.3v52.09c0 8.11 6.54 14.66 14.66 14.66 8.11 0 14.66-6.54 14.66-14.66v-66.75c0-8.11-6.54-14.66-14.66-14.66zm-252.34 208.88c-8.11 0-14.66 6.54-14.66 14.66v66.75c0 8.11 6.54 14.66 14.66 14.66h76.96c8.11 0 14.66-6.54 14.66-14.66 0-8.11-6.54-14.66-14.66-14.66h-62.3v-52.09c0-8.11-6.54-14.66-14.66-14.66zm329.29 0c-8.11 0-14.66 6.54-14.66 14.66v52.09h-62.3c-8.11 0-14.66 6.54-14.66 14.66 0 8.11 6.54 14.66 14.66 14.66h76.96c8.11 0 14.66-6.54 14.66-14.66v-66.75c0-8.11-6.54-14.66-14.66-14.66z"/></g></svg>