<svg xmlns="http://www.w3.org/2000/svg" width="64pt" height="64pt" viewBox="0 0 835 835">
<path d="M698.5 141.1a20 20 0 0 1 30.8-1.3A416 416 0 0 1 835 417.4a416 416 0 0 1-93.3 263 20 20 0 0 1-31.3-.6l-43-56.6a20 20 0 0 1-.2-24 307 307 0 0 0 59.3-181.8c0-74.2-26.2-142.3-69.9-195.6a20 20 0 0 1-.5-24.8zM260.7 456.4a20 20 0 0 1-7.7-36.7l282-177.4a20 20 0 0 1 29.9 22.7l-97 318.9a20 20 0 0 1-37.5 2.2l-49.2-111.5z" style="fill:#ccdfca"/>
<path d="M626.3 753a20 20 0 0 1-6.2 29.6A416 416 0 0 1 417.5 835 417.7 417.7 0 0 1 0 417.4 417.7 417.7 0 0 1 603.3 43.5a20 20 0 0 1 7 30l-42.4 55.8a20 20 0 0 1-24.2 6.1 307 307 0 0 0-126.2-27 309 309 0 0 0-309 309c0 170.6 138.5 309 309 309a307 307 0 0 0 141.6-34.3 20 20 0 0 1 25.1 5.6z" style="fill:#fefdf6"/>
</svg>
