<svg height="28" viewBox="0 0 28 28" width="28" xmlns="http://www.w3.org/2000/svg"><g fill="none" opacity=".898664"><circle cx="14" cy="14" fill="#7f5933" fill-rule="evenodd" r="14"/><path d="m10.3454333 8.64113333c.8829567 0 1.5908667-.69888 1.5908667-1.57056666 0-.87164-.7079567-1.57056667-1.5908667-1.57056667-.88290997 0-1.59086663.69888-1.59086663 1.57056667 0 .87164.70795666 1.57056666 1.59086663 1.57056666zm8.9091334 8.79491667v4.3974h-2.5454334v-4.3974h-2.5454333l2.2272833-6.9102833s.318185-1.25638337 1.5908667-1.25638337 1.5908667 1.25638337 1.5908667 1.25638337l2.2272833 6.9102833zm-7.6364167-1.8846333v6.2820333h-2.54543333v-6.2820333h-1.27271667v-4.53215c0-.9664434.77319667-1.74988337 1.75198333-1.74988337h1.58689997c.9675984 0 1.7519834.78292667 1.7519834 1.74988337v4.53215zm8.1181333-8.48073337c0 .87164-.7346733 1.57056667-1.65095 1.57056667-.9162766 0-1.65095-.69888-1.65095-1.57056667 0-.87164.7346734-1.57056666 1.65095-1.57056666.9162767 0 1.65095.69888 1.65095 1.57056666z" fill="#000"/></g></svg>