<?xml version="1.0" encoding="UTF-8"?>
<svg width="28px" height="28px" viewBox="0 0 28 28" version="1.1" xmlns="http://www.w3.org/2000/svg" xmlns:xlink="http://www.w3.org/1999/xlink">
    <title>toilet_light</title>
    <g id="toilet_light" stroke="none" fill="none" fill-rule="evenodd">
        <path d="M14,0 C21.7319865,0 28,6.2680135 28,14 C28,21.7319865 21.7319865,28 14,28 C6.2680135,28 0,21.7319865 0,14 C0,6.2680135 6.2680135,0 14,0 Z M17.98185,9.26938333 C16.7091683,9.26938333 16.3909833,10.5257667 16.3909833,10.5257667 L14.1637,17.43605 L16.7091333,17.43605 L16.7091333,21.83345 L19.2545667,21.83345 L19.2545667,17.43605 L21.8,17.43605 L19.5727167,10.5257667 C19.5727167,10.5257667 19.2545317,9.26938333 17.98185,9.26938333 Z M11.1388833,9.26938333 L9.55198333,9.26938333 C8.57319667,9.26938333 7.8,10.0528233 7.8,11.0192667 L7.8,15.5514167 L9.07271667,15.5514167 L9.07271667,21.83345 L11.61815,21.83345 L11.61815,15.5514167 L12.8908667,15.5514167 L12.8908667,11.0192667 C12.8908667,10.05231 12.1064817,9.26938333 11.1388833,9.26938333 Z M10.3454333,5.5 C9.46252333,5.5 8.75456667,6.19888 8.75456667,7.07056667 C8.75456667,7.94220667 9.46252333,8.64113333 10.3454333,8.64113333 C11.22839,8.64113333 11.9363,7.94225333 11.9363,7.07056667 C11.9363,6.19892667 11.2283433,5.5 10.3454333,5.5 Z M18.0853333,5.50011667 C17.1690567,5.50011667 16.4343833,6.19904333 16.4343833,7.07068333 C16.4343833,7.94237 17.1690567,8.64125 18.0853333,8.64125 C19.00161,8.64125 19.7362833,7.94232333 19.7362833,7.07068333 C19.7362833,6.19899667 19.00161,5.50011667 18.0853333,5.50011667 Z" id="Shape" fill="#9C6136"></path>
    </g>
</svg>