<svg height="28" viewBox="0 0 28 28" width="28" xmlns="http://www.w3.org/2000/svg"><g fill="none" opacity=".898664"><circle cx="14" cy="14" fill="#7f5933" fill-rule="evenodd" r="14"/><path d="m14.8166667 12.2166667v5.3083333c0 2.4826667-2.009 4.4916667-4.4916667 4.4916667-2.48266667 0-4.49166667-2.009-4.49166667-4.4916667v-5.3083333zm-2.45 5.7166666h-4.08333337c0 .6778334.91466667 1.225 2.04166667 1.225s2.0416667-.5471666 2.0416667-1.225zm9.8-11.4333333v5.3083333c0 2.4826667-2.009 4.4916667-4.4916667 4.4916667-.735 0-1.4291667-.1878333-2.0416667-.4981667v-4.4018333h-2.45v-4.9zm-9.8 8.1666667c-.4491667 0-.8166667.3675-.8166667.8166666 0 .4491667.3675.8166667.8166667.8166667.4491666 0 .8166666-.3675.8166666-.8166667 0-.4491666-.3675-.8166666-.8166666-.8166666zm-4.08333337 0c-.44916666 0-.81666666.3675-.81666666.8166666 0 .4491667.3675.8166667.81666666.8166667.44916667 0 .81666667-.3675.81666667-.8166667 0-.4491666-.3675-.8166666-.81666667-.8166666zm9.39166667-2.45c-1.127 0-2.0416667.5471666-2.0416667 1.225h4.0833334c0-.6778334-.9146667-1.225-2.0416667-1.225zm-2.0416667-3.20133337c-.4491666 0-.8166666.3675-.8166666.81666667 0 .4491667.3675.8166667.8166666.8166667.4491667 0 .8166667-.3593334.8166667-.8166667 0-.44916667-.3675-.81666667-.8166667-.81666667zm4.0833334 0c-.4491667 0-.8166667.3675-.8166667.81666667 0 .4491667.3675.8166667.8166667.8166667.4491666 0 .8166666-.3593334.8166666-.8166667 0-.44916667-.3675-.81666667-.8166666-.81666667z" fill="#000"/></g></svg>