<?xml version="1.0" encoding="UTF-8"?>
<svg width="28px" height="28px" viewBox="0 0 28 28" version="1.1" xmlns="http://www.w3.org/2000/svg" xmlns:xlink="http://www.w3.org/1999/xlink">
    <title>entertainment_dark</title>
    <g id="entertainment_dark" stroke="none" fill="none" fill-rule="evenodd">
        <path d="M14,0 C21.7319865,0 28,6.2680135 28,14 C28,21.7319865 21.7319865,28 14,28 C6.2680135,28 0,21.7319865 0,14 C0,6.2680135 6.2680135,0 14,0 Z M14.8166667,12.2166667 L5.83333333,12.2166667 L5.83333333,17.525 C5.83333333,20.0076667 7.84233333,22.0166667 10.325,22.0166667 C12.8076667,22.0166667 14.8166667,20.0076667 14.8166667,17.525 L14.8166667,12.2166667 Z M12.3666667,17.9333333 C12.3666667,18.6111667 11.452,19.1583333 10.325,19.1583333 C9.198,19.1583333 8.28333333,18.6111667 8.28333333,17.9333333 Z M22.1666667,6.5 L13.1833333,6.5 L13.1833333,11.4 L15.6333333,11.4 L15.6333333,15.8018333 C16.2458333,16.1121667 16.94,16.3 17.675,16.3 C20.1576667,16.3 22.1666667,14.291 22.1666667,11.8083333 L22.1666667,6.5 Z M12.3666667,14.6666667 C12.8158333,14.6666667 13.1833333,15.0341667 13.1833333,15.4833333 C13.1833333,15.9325 12.8158333,16.3 12.3666667,16.3 C11.9175,16.3 11.55,15.9325 11.55,15.4833333 C11.55,15.0341667 11.9175,14.6666667 12.3666667,14.6666667 Z M8.28333333,14.6666667 C8.7325,14.6666667 9.1,15.0341667 9.1,15.4833333 C9.1,15.9325 8.7325,16.3 8.28333333,16.3 C7.83416667,16.3 7.46666667,15.9325 7.46666667,15.4833333 C7.46666667,15.0341667 7.83416667,14.6666667 8.28333333,14.6666667 Z M17.675,12.2166667 C18.802,12.2166667 19.7166667,12.7638333 19.7166667,13.4416667 L15.6333333,13.4416667 C15.6333333,12.7638333 16.548,12.2166667 17.675,12.2166667 Z M15.6333333,9.01533333 C16.0825,9.01533333 16.45,9.38283333 16.45,9.832 C16.45,10.2893333 16.0825,10.6486667 15.6333333,10.6486667 C15.1841667,10.6486667 14.8166667,10.2811667 14.8166667,9.832 C14.8166667,9.38283333 15.1841667,9.01533333 15.6333333,9.01533333 Z M19.7166667,9.01533333 C20.1658333,9.01533333 20.5333333,9.38283333 20.5333333,9.832 C20.5333333,10.2893333 20.1658333,10.6486667 19.7166667,10.6486667 C19.2675,10.6486667 18.9,10.2811667 18.9,9.832 C18.9,9.38283333 19.2675,9.01533333 19.7166667,9.01533333 Z" id="Shape" fill="#7F5933"></path>
    </g>
</svg>