<svg height="1024" viewBox="0 0 1024 1024" width="1024" xmlns="http://www.w3.org/2000/svg" xmlns:xlink="http://www.w3.org/1999/xlink"><defs><path id="a" d="m0 0h1024v1024h-1024z"/></defs><path d="m26.9732103 23.4364718v977.1270582h70.3094153v23.43647h-97.2826256v-1024h97.2826256v23.4364718zm300.5151177 309.7521232v49.438195h1.37321c13.188595-18.915118 29.149867-33.476923 47.650134-43.7248 18.513395-10.429046 39.980636-15.559549 64-15.559549 23.047877 0 44.113395 4.534482 63.22281 13.396021 19.096287 8.861538 33.476923 24.809682 43.517374 47.261538 10.83077-15.948144 25.6-30.134482 44.113395-42.338462 18.500267-12.203979 40.563528-18.319097 65.969231-18.319097 19.290585 0 37.207959 2.370954 53.752123 7.099733 16.544164 4.715652 30.523077 12.20398 42.338462 22.646154 11.815384 10.429046 20.87122 23.825067 27.56923 40.563528 6.503713 16.738462 9.846154 36.819365 9.846154 60.450134v244.378913h-100.236472v-206.963529c0-12.203979-.388594-23.825066-1.37321-34.655836-.984615-10.830769-3.549866-20.288328-7.682625-28.165251-4.327057-8.07122-10.429047-14.367508-18.707693-19.096287-8.265518-4.728779-19.49801-7.086605-33.476923-7.086605-14.17321 0-25.6 2.759549-34.267241 8.07122-8.654113 5.519098-15.54642 12.411406-20.469497 21.272944-4.923077 8.654113-8.278646 18.500267-9.846154 29.732759-1.580636 11.025067-2.565251 22.244431-2.565251 33.476923v203.413662h-100.236472v-204.8c0-10.83077-.194298-21.454113-.790318-32.090585-.388595-10.636472-2.552123-20.288328-6.10199-29.344164-3.536738-8.861539-9.444431-16.142441-17.723077-21.467241-8.265518-5.311672-20.2752-8.071221-36.430769-8.071221-4.72878 0-11.025067.984616-18.707692 3.148144-7.682626 2.163528-15.352123 6.10199-22.646154 12.009682-7.280903 5.907692-13.590318 14.380636-18.707692 25.405703-5.117375 11.025066-7.682626 25.6-7.682626 43.517374v211.899733h-100.223344v-365.499733zm669.538462 667.374935v-977.1270582h-70.309416v-23.4364718h97.282626v1024h-97.282626v-23.43647z" fill-rule="evenodd" xlink:href="#a"/></svg>