<svg height="28" viewBox="0 0 28 28" width="28" xmlns="http://www.w3.org/2000/svg"><g fill="none" opacity=".898664"><circle cx="14" cy="14" fill="#be75a3" fill-rule="evenodd" r="14"/><path d="m19.4443861 8.88885h-1.5555166c0-2.14666667-1.7421833-3.88885-3.88885-3.88885s-3.88885 1.74218333-3.88885 3.88885h-1.55551668c-.85555167 0-1.54781667.7-1.54781667 1.5555167l-.00777782 9.3333333c0 .8555517.7 1.5555167 1.55551667 1.5555167h10.88885c.8555517 0 1.5555167-.7 1.5555167-1.5555167v-9.3333333c0-.8555517-.7-1.5555167-1.5555167-1.5555167zm-5.4444833-2.33333333c1.29115 0 2.3333333 1.04221833 2.3333333 2.33333333h-4.6666666c0-1.29115 1.0422183-2.33333333 2.3333333-2.33333333zm0 7.77781663c-2.1466667 0-3.88885-1.7421833-3.88885-3.88885h1.5555167c0 1.29115 1.0422183 2.3333334 2.3333333 2.3333334s2.3333333-1.0422184 2.3333333-2.3333334h1.5555167c0 2.1466667-1.7421833 3.88885-3.88885 3.88885z" fill="#fff"/></g></svg>