<?xml version="1.0" encoding="UTF-8"?>
<svg width="28px" height="28px" viewBox="0 0 28 28" version="1.1" xmlns="http://www.w3.org/2000/svg" xmlns:xlink="http://www.w3.org/1999/xlink">
    <title>transport_dark</title>
    <g id="transport_dark" stroke="none" fill="none" fill-rule="evenodd">
        <path d="M14,0 C21.7319865,0 28,6.2680135 28,14 C28,21.7319865 21.7319865,28 14,28 C6.2680135,28 0,21.7319865 0,14 C0,6.2680135 6.2680135,0 14,0 Z M17.7652425,5.6 L10.2339515,5.6 C8.67873133,5.6 7.39855249,6.8233354 7.3279318,8.37707196 L6.86287684,18.6248613 L6.88169744,19.0301853 C7.04973517,20.4769811 8.27928213,21.6 9.77120086,21.6 L18.2940892,21.5992497 L18.6981339,21.5620297 C20.1357825,21.3284073 21.2018095,20.0490603 21.1340668,18.5587623 L20.6712621,8.37700229 C20.6007172,6.82330936 19.3205789,5.6 17.7652425,5.6 Z M9.92695997,17.2362972 C10.5696181,17.2362972 11.0905897,17.7572687 11.0905897,18.3999268 C11.0905897,19.042585 10.5696181,19.5635566 9.92695997,19.5635566 C9.28430184,19.5635566 8.76333027,19.042585 8.76333027,18.3999268 C8.76333027,17.7572687 9.28430184,17.2362972 9.92695997,17.2362972 Z M18.0723679,17.2362972 C18.7150261,17.2362972 19.2359977,17.7572687 19.2359977,18.3999268 C19.2359977,19.042585 18.7150261,19.5635566 18.0723679,19.5635566 C17.4297098,19.5635566 16.9087383,19.042585 16.9087383,18.3999268 C16.9087383,17.7572687 17.4297098,17.2362972 18.0723679,17.2362972 Z M17.2628087,7.78180569 C18.0410005,7.78180569 18.6813533,8.39434738 18.7159058,9.17178293 L18.8775195,12.8081258 C18.9131848,13.6106375 18.2915299,14.2901216 17.4890037,14.3257899 L10.57486,14.3272243 C9.77154822,14.3272243 9.12032285,13.675999 9.12032285,12.8726871 L9.28337093,9.17176139 C9.31791619,8.39432582 9.95826161,7.78180569 10.736446,7.78180569 Z" id="Shape" fill="#2F6499"></path>
    </g>
</svg>