<svg height="1024" viewBox="0 0 1024 1024" width="1024" xmlns="http://www.w3.org/2000/svg"><path d="m678.811499-0c122.384384.21271273 127.149019 1.2367872 151.066699 4.69502138 49.371154 7.12138012 90.796013 26.81533902 124.660438 59.17649452 18.979821 18.2681228 32.052987 36.1344461 43.826771 60.0587361 14.349093 29.225853 21.397653 56.876218 24.626563 97.997172.67226 8.558245.98879 140.926906 1.00718 277.096167l.00076 8.426636.00009 4.214981c0 1.40481-.00003 2.80964-.00009 4.214356l-.0007 8.425882c-.01705 136.162339-.31134 268.775584-.98359 277.333829-3.18956 40.467121-10.23806 68.353843-24.138213 97.028264-13.56867 28.105467-33.107521 52.909316-57.252044 72.6792-24.144543 19.769884-52.312642 34.029181-82.537081 41.782101-22.248151 5.75064-42.369881 8.45277-77.021799 10.08344-11.869922.60498-131.521202.77436-255.483785.78694l-11.630965.00073-3.879328.00005c-129.314742 0-258.55071-.39396-271.230175-.94538-29.92668-1.41797-53.237984-4.41137-74.344188-9.84687-60.955908-15.755192-112.6975672-57.979125-139.7890884-114.225155-14.1758092-29.383382-20.8699392-56.245955-24.41387287-98.942473-.9930994-11.767587-1.24519387-70.897932-1.25942575-269.418797l-.0006528-18.822178c0-.719776-.00000788-1.43772-.00002339-2.153837l-.00077613-10.605489c-.000086-.697992-.00017846-1.394186-.00027714-2.088586l-.00066485-4.14492c-.00012262-.687248-.00025099-1.372713-.00038487-2.0564l-.00086757-4.080841c-.00697453-30.447007-.0241557-57.317034-.03001389-81.104673l-.0007121-3.153463c-.00010687-.522547-.00020768-1.043583-.00030218-1.563113l-.00027218-18.06192c.00009073-.48417.00019059-.9669.00029982-1.448194l.00076975-2.870586c.00369164-11.889369.013536-22.888445.03322473-33.082035.20476277-122.323223 1.2128256-127.207386 4.67800437-151.155265 7.12728205-49.329468 26.81589755-90.828614 59.30209275-124.5604397 17.8378752-18.4965865 35.9120152-31.6915526 58.8295447-43.0746345 29.737668-14.8098699 57.033951-21.71853727 100.900175-25.36583909 11.787254-.97807378 70.961458-1.21496746 269.58995-1.22830081zm-160.936832 133.919862h-11.997654c-97.137535.017969-110.301864.485178-149.817691 2.283979-40.243498 1.843312-67.713042 8.216334-91.748892 17.567037-24.862757 9.657884-45.95321 22.577133-66.964889 43.602422-21.027431 21.017396-33.943161 42.113564-43.629959 66.975204-9.371779 24.050279-15.75087 51.535239-17.562233 91.773934-1.759682 39.526572-2.248693 52.702114-2.267549 149.866414l-.000019 12.109375c.018264 97.162501.492765 110.292643 2.283337 149.819215 1.850722 40.254464 8.221957 67.731419 17.562233 91.773822 9.663172 24.869534 22.578884 45.965759 43.598439 66.983229 21.003804 21.033108 42.094238 33.983878 66.941263 43.641837 24.0516 9.350721 51.52902 15.723576 91.764661 17.566981 39.515808 1.798727 52.672592 2.265989 149.802431 2.28396h12.106058c97.143437-.017971 110.269984-.485233 149.78581-2.28396 40.243498-1.843405 67.744563-8.21626 91.796126-17.566981 24.854901-9.657959 45.913852-22.608729 66.917618-43.641837 21.027487-21.01747 33.943106-42.11362 43.629885-66.975279 9.293042-24.050278 15.672171-51.53522 17.562289-91.773933.3985-8.873312.7322-16.416738 1.010325-23.879426l.074482-2.034216c.90178-25.087116 1.184268-50.545572 1.198511-123.913403v-12.109374c-.018863-97.163998-.508182-110.331958-2.283318-149.85853-1.890118-40.254483-8.269247-67.731549-17.562289-91.773933-9.686779-24.869535-22.602398-45.965703-43.629885-66.983099-21.02743-21.033164-42.054842-33.952414-66.941281-43.602422-24.098854-9.350703-51.584075-15.723725-91.827629-17.567037-39.515807-1.798801-52.63479-2.26601-149.80018-2.283979zm-39.856237 68.046041v.094543c2.609393-.004088 5.297132-.006057 8.067059-.00673l6.062753.000241c4.127567.001081 8.428464.003605 12.913891.005167l2.713489.000803c.455968.000108.913805.000202 1.37352.000279l8.731001.000684c95.471275.01463 107.74159.39814 146.802036 2.173769 36.857093 1.685802 56.860654 7.846093 70.185929 13.021668 17.640988 6.853464 30.218109 15.046228 43.440984 28.280534 13.23075 13.234381 21.421168 25.838499 28.288559 43.484309 5.17416 13.313099 11.340632 33.322152 13.018037 70.189261 1.775136 39.06342 2.188873 51.344416 2.204712 146.797525v11.897847c-.015839 95.453095-.429576 107.734161-2.204712 146.797527-1.685299 36.867128-7.843877 56.876218-13.018037 70.189354-6.851622 17.645735-15.057809 30.210513-28.288559 43.437-13.23075 13.234306-25.792121 21.427069-43.440984 28.280534-13.309524 5.19922-33.328836 11.343686-70.185929 13.029488-39.451226 1.793729-51.57823 2.197731-149.75073 2.205632l-3.001379.000119c-100.939534 0-112.90233-.393904-152.752072-2.205751-36.857074-1.701572-56.860672-7.861788-70.193804-13.037438-17.640988-6.853483-30.241699-15.046098-43.472449-28.28046-13.230731-13.234381-21.421186-25.806959-28.288577-43.460589-5.174179-13.313136-11.340632-33.322301-13.018112-70.18941-.434723-9.566543-.78598-17.526816-1.068795-25.496674l-.069286-1.993599c-.814537-23.948028-1.024364-49.194204-1.035111-119.366587v-11.905183c.010747-70.170577.220574-95.383564 1.035111-119.314117l.104996-2.987799c.276522-7.634565.616476-15.323965 1.033085-24.491906 1.685336-36.867072 7.843933-56.8762 13.018112-70.205087 6.851621-17.64581 15.057846-30.249928 28.288577-43.48429 13.23075-13.234306 25.831461-21.426995 43.472449-28.296304 13.325256-5.199164 33.33673-11.343686 70.193804-13.037363 8.020668-.36238 14.911485-.666412 21.6251-.920726l1.747984-.06522c21.815219-.801302 42.627049-1.081915 95.467348-1.141051zm33.90757 115.895097c-107.204299.000013-194.125552 86.944967-194.125552 194.182567 0 107.237618 86.921253 194.143157 194.129622 194.143157 107.208425 0 194.10607-86.905539 194.10607-194.143157 0-106.165224-85.176119-192.441626-190.90385-194.156537zm.00407 68.141125c69.587428 0 126.007073 56.427203 126.007073 126.041442 0 69.606362-56.419645 126.041404-126.007073 126.041404-69.595266 0-126.007072-56.435042-126.007072-126.041404 0-69.614239 56.411806-126.041442 126.007072-126.041442zm201.784599-121.173085v.015769c-8.972548 0-17.743574 2.661581-25.20373 7.648163-7.460194 4.986564-13.274392 12.074077-16.707324 20.366187-3.43295 8.292092-4.330328 17.416267-2.578729 26.218571 1.751598 8.802304 6.073548 16.887324 12.419183 23.232493 6.345672 6.34517 14.429929 10.665481 23.230427 12.414492 8.800535 1.749011 17.921918.848189 26.210583-2.58856 8.288647-3.43673 15.372232-9.254968 20.35483-16.718941 4.982598-7.463955 7.640418-16.238239 7.637296-25.213245 0-25.050708-20.318605-45.374929-45.362536-45.374929z"/></svg>