<svg height="1024" viewBox="0 0 1024 1024" width="1024" xmlns="http://www.w3.org/2000/svg"><path d="m512 0c282.769771 0 512 229.230229 512 512s-229.230229 512-512 512-512-229.230229-512-512 229.230229-512 512-512zm229.178304 314.180267c-6.134379-4.977622-15.604587-6.027307-19.840064-5.962595-19.25728.349155-48.802645 10.622499-190.990507 69.763299l-6.21465 2.591957c-51.62681 21.586528-149.084262 63.593924-292.372336 126.022165l-1.440385.578049c-23.300087 9.437366-35.516492 18.673739-36.649215 27.709119-2.196881 17.524045 22.757882 23.100176 54.368906 33.323121l.959926.311226c8.103978 2.634282 17.075116 5.407308 26.141593 7.991666l1.755785.497755 1.731083.485313c19.043627 5.308618 38.07177 9.602484 49.959827 9.859314 16.582656.358272 35.090773-6.478208 55.524394-20.509483l20.412498-13.771405c126.074398-85.007504 191.258433-127.998498 195.552068-128.973l.776864-.173029c3.100414-.672054 7.066482-1.25048 9.823882 1.200336 2.993728 2.660928 2.699456 7.700181 2.382315 9.052074-2.535552 10.809472-133.538965 129.966998-141.078293 137.797654-28.808534 29.921728-61.578283 48.230592-11.02784 81.542528l5.161059 3.40857c13.965127 9.243532 26.10596 17.445561 37.782063 25.380708l25.76466 17.529668c13.048607 8.857311 26.769279 18.094944 43.031386 28.777983l2.522165 1.655092c28.797653 18.877205 51.375403 41.262699 81.108181 38.526613 13.681366-1.258944 27.813334-14.123605 34.990443-52.491904l1.037019-5.56572c17.248024-92.922431 49.419059-283.195758 56.970192-362.535805.67505-7.093056-.174166-16.170773-.856128-20.155712l-.09789-.55359c-.721431-3.944409-2.244689-9.300005-7.189001-13.311967z"/></svg>