<svg height="28" viewBox="0 0 28 28" width="28" xmlns="http://www.w3.org/2000/svg"><g fill="none" opacity=".898664"><circle cx="14" cy="14" fill="#d85961" fill-rule="evenodd" r="14"/><path d="m16.961 6.99999417c-1.0583067 0-2.11225.41071916-2.8883167 1.17973916l-5.8427833 5.81104997c-1.20458333 1.1935-1.53183333 2.92635-.94806833 4.3692834 0 0 .436555 1.0224083.85988 1.4418833.39849833.3948583.87964333.6729217 1.36698333.873845.13455167.0694132.23618.094717.352765.131075.015652.0048285.02840133.0172083.0440965.0218458 1.4026833.4145284 2.96765.0786462 4.0348-1.0267716l3.52765-3.49545 2.3150167-2.3157167c1.6227166-1.6079 1.6227166-4.18576667 0-5.72366667-.7055417-.83889166-1.7638834-1.26711666-2.8221667-1.26711666zm0 1.39813916c.7055417 0 1.4242667.27526334 1.9182333.76462167.4939667.48935833.77168 1.20155.77168 1.9006167 0 .6990783-.2778066 1.3893833-.77168 1.8788l-2.4032166 2.3812833-3.8102167-3.8003 2.3329833-2.29483333c.5644334-.559265 1.18615-.83018834 1.9623334-.83018834z" fill="#fff"/></g></svg>