<?xml version="1.0" encoding="UTF-8"?>
<svg width="28px" height="28px" viewBox="0 0 28 28" version="1.1" xmlns="http://www.w3.org/2000/svg" xmlns:xlink="http://www.w3.org/1999/xlink">
    <title>pharmacy_light</title>
    <g id="pharmacy_light" stroke="none" fill="none" fill-rule="evenodd">
        <path d="M14,0 C21.7319865,0 28,6.2680135 28,14 C28,21.7319865 21.7319865,28 14,28 C6.2680135,28 0,21.7319865 0,14 C0,6.2680135 6.2680135,0 14,0 Z M16.9608565,6.99999417 C15.9026933,6.99999417 14.84875,7.41071333 14.0726833,8.17973333 L8.2299,13.9907833 C7.02531667,15.1842833 6.69806667,16.9171333 7.28183167,18.3600667 L7.3014167,18.4048176 C7.3907637,18.6062479 7.77130229,19.4349094 8.14171167,19.80195 C8.54021,20.1968083 9.021355,20.4748717 9.508695,20.675795 C9.64324667,20.7452082 9.744875,20.770512 9.86146,20.80687 L9.9055565,20.8287158 C11.3082398,21.2432442 12.8732065,20.907362 13.9403565,19.8019442 L17.4680065,16.3064942 L19.7830232,13.9907775 C21.4057398,12.3828775 21.4057398,9.80501083 19.7830232,8.26711083 C19.0774815,7.42821917 18.0191398,6.99999417 16.9608565,6.99999417 Z M16.96,8.398 C17.6665417,8.39813333 18.3852667,8.67339667 18.8792333,9.162755 C19.3732,9.65211333 19.6509133,10.364305 19.6509133,11.0633717 C19.6509133,11.76245 19.3731067,12.452755 18.8792333,12.9421717 L16.4760167,15.323455 L12.6658,11.523155 L14.9987833,9.22832167 C15.5119045,8.71989894 16.0723674,8.44977511 16.753187,8.40486353 L16.96,8.398 Z" id="Shape" fill="#D85961"></path>
    </g>
</svg>